solid CATIA STL
  facet normal  0.000000e+000  0.000000e+000 -1.000000e+000
    outer loop
      vertex -9.270510e-001  2.853169e+000  0.000000e+000
      vertex -5.493621e+000  1.679729e+001  0.000000e+000
      vertex -5.230017e+000  1.743368e+001  0.000000e+000
    endloop
  endfacet
  facet normal  0.000000e+000  0.000000e+000 -9.999999e-001
    outer loop
      vertex -4.697308e-001  1.942395e+001  0.000000e+000
      vertex  9.270510e-001  2.853169e+000  0.000000e+000
      vertex -9.270510e-001  2.853169e+000  0.000000e+000
    endloop
  endfacet
  facet normal  0.000000e+000  0.000000e+000 -1.000000e+000
    outer loop
      vertex -4.697308e-001  1.942395e+001  0.000000e+000
      vertex -9.270510e-001  2.853169e+000  0.000000e+000
      vertex -5.230017e+000  1.743368e+001  0.000000e+000
    endloop
  endfacet
  facet normal  0.000000e+000  0.000000e+000 -1.000000e+000
    outer loop
      vertex -4.697308e-001  1.942395e+001  0.000000e+000
      vertex -5.230017e+000  1.743368e+001  0.000000e+000
      vertex -5.493621e+000  1.807008e+001  0.000000e+000
    endloop
  endfacet
  facet normal  0.000000e+000  0.000000e+000 -9.999999e-001
    outer loop
      vertex -4.697308e-001  1.942395e+001  0.000000e+000
      vertex -5.493621e+000  1.807008e+001  0.000000e+000
      vertex -6.130017e+000  1.833368e+001  0.000000e+000
    endloop
  endfacet
  facet normal  0.000000e+000  0.000000e+000 -1.000000e+000
    outer loop
      vertex -4.697308e-001  1.942395e+001  0.000000e+000
      vertex -6.130017e+000  1.833368e+001  0.000000e+000
      vertex -4.156939e+000  2.309998e+001  0.000000e+000
    endloop
  endfacet
  facet normal  0.000000e+000  0.000000e+000 -1.000000e+000
    outer loop
      vertex -4.697308e-001  1.942395e+001  0.000000e+000
      vertex -4.156939e+000  2.309998e+001  0.000000e+000
      vertex -1.893819e+000  2.168276e+001  0.000000e+000
    endloop
  endfacet
  facet normal  0.000000e+000  0.000000e+000 -1.000000e+000
    outer loop
      vertex  5.660286e+000  1.990265e+000  0.000000e+000
      vertex  5.963286e+000 -6.627392e-001  0.000000e+000
      vertex  3.000000e+000 -8.404323e-016  0.000000e+000
    endloop
  endfacet
  facet normal  0.000000e+000  0.000000e+000 -1.000000e+000
    outer loop
      vertex  5.660286e+000  1.990265e+000  0.000000e+000
      vertex  3.000000e+000 -8.404323e-016  0.000000e+000
      vertex  2.427051e+000  1.763356e+000  0.000000e+000
    endloop
  endfacet
  facet normal  0.000000e+000  0.000000e+000 -1.000000e+000
    outer loop
      vertex  5.660286e+000  1.990265e+000  0.000000e+000
      vertex  2.427051e+000  1.763356e+000  0.000000e+000
      vertex  9.270510e-001  2.853169e+000  0.000000e+000
    endloop
  endfacet
  facet normal  0.000000e+000  0.000000e+000 -9.999999e-001
    outer loop
      vertex  5.660286e+000  1.990265e+000  0.000000e+000
      vertex  9.270510e-001  2.853169e+000  0.000000e+000
      vertex -4.697308e-001  1.942395e+001  0.000000e+000
    endloop
  endfacet
  facet normal  0.000000e+000  -0.000000e+000 -1.000000e+000
    outer loop
      vertex -6.130017e+000  1.653368e+001  0.000000e+000
      vertex -5.493621e+000  1.679729e+001  0.000000e+000
      vertex -9.270510e-001  2.853169e+000  0.000000e+000
    endloop
  endfacet
  facet normal  -0.000000e+000  0.000000e+000 -1.000000e+000
    outer loop
      vertex -6.130017e+000  1.653368e+001  0.000000e+000
      vertex -9.270510e-001  2.853169e+000  0.000000e+000
      vertex -2.427051e+000  1.763356e+000  0.000000e+000
    endloop
  endfacet
  facet normal  -0.000000e+000  0.000000e+000 -9.999999e-001
    outer loop
      vertex -6.130017e+000  1.653368e+001  0.000000e+000
      vertex -2.427051e+000  1.763356e+000  0.000000e+000
      vertex -3.000000e+000 -1.070518e-015  0.000000e+000
    endloop
  endfacet
  facet normal  -0.000000e+000  0.000000e+000 -1.000000e+000
    outer loop
      vertex -6.130017e+000  1.653368e+001  0.000000e+000
      vertex -3.000000e+000 -1.070518e-015  0.000000e+000
      vertex -5.660286e+000 -1.990265e+000  0.000000e+000
    endloop
  endfacet
  facet normal  0.000000e+000  0.000000e+000 -1.000000e+000
    outer loop
      vertex -6.130017e+000  1.653368e+001  0.000000e+000
      vertex -5.660286e+000 -1.990265e+000  0.000000e+000
      vertex -1.179030e+001  1.544342e+001  0.000000e+000
    endloop
  endfacet
  facet normal  0.000000e+000  0.000000e+000 -1.000000e+000
    outer loop
      vertex -1.179030e+001  1.544342e+001  0.000000e+000
      vertex -1.209330e+001  1.809642e+001  0.000000e+000
      vertex -6.766414e+000  1.807008e+001  0.000000e+000
    endloop
  endfacet
  facet normal  0.000000e+000  0.000000e+000 -9.999999e-001
    outer loop
      vertex -1.179030e+001  1.544342e+001  0.000000e+000
      vertex -6.766414e+000  1.807008e+001  0.000000e+000
      vertex -7.030017e+000  1.743368e+001  0.000000e+000
    endloop
  endfacet
  facet normal  0.000000e+000  -0.000000e+000 -1.000000e+000
    outer loop
      vertex -1.179030e+001  1.544342e+001  0.000000e+000
      vertex -7.030017e+000  1.743368e+001  0.000000e+000
      vertex -6.766414e+000  1.679729e+001  0.000000e+000
    endloop
  endfacet
  facet normal  0.000000e+000  -0.000000e+000 -9.999999e-001
    outer loop
      vertex -1.179030e+001  1.544342e+001  0.000000e+000
      vertex -6.766414e+000  1.679729e+001  0.000000e+000
      vertex -6.130017e+000  1.653368e+001  0.000000e+000
    endloop
  endfacet
  facet normal  0.000000e+000  -0.000000e+000 -1.000000e+000
    outer loop
      vertex -1.121520e+001  2.061816e+001  0.000000e+000
      vertex -9.329915e+000  2.250918e+001  0.000000e+000
      vertex -6.130017e+000  1.833368e+001  0.000000e+000
    endloop
  endfacet
  facet normal  0.000000e+000  0.000000e+000 -1.000000e+000
    outer loop
      vertex -6.130017e+000  1.833368e+001  0.000000e+000
      vertex -9.329915e+000  2.250918e+001  0.000000e+000
      vertex -6.810850e+000  2.339493e+001  0.000000e+000
    endloop
  endfacet
  facet normal  0.000000e+000  0.000000e+000 -1.000000e+000
    outer loop
      vertex -6.130017e+000  1.833368e+001  0.000000e+000
      vertex -6.810850e+000  2.339493e+001  0.000000e+000
      vertex -4.156939e+000  2.309998e+001  0.000000e+000
    endloop
  endfacet
  facet normal  0.000000e+000  0.000000e+000 -1.000000e+000
    outer loop
      vertex -4.236198e+000 -4.249074e+000  0.000000e+000
      vertex -9.270510e-001 -2.853169e+000  0.000000e+000
      vertex -1.973079e+000 -5.666300e+000  0.000000e+000
    endloop
  endfacet
  facet normal  0.000000e+000  0.000000e+000 -1.000000e+000
    outer loop
      vertex -1.973079e+000 -5.666300e+000  0.000000e+000
      vertex -9.270510e-001 -2.853169e+000  0.000000e+000
      vertex  9.270510e-001 -2.853169e+000  0.000000e+000
    endloop
  endfacet
  facet normal  0.000000e+000  0.000000e+000 -1.000000e+000
    outer loop
      vertex -1.973079e+000 -5.666300e+000  0.000000e+000
      vertex  9.270510e-001 -2.853169e+000  0.000000e+000
      vertex  6.808330e-001 -5.961247e+000  0.000000e+000
    endloop
  endfacet
  facet normal  0.000000e+000  0.000000e+000 -1.000000e+000
    outer loop
      vertex  6.808330e-001 -5.961247e+000  0.000000e+000
      vertex  9.270510e-001 -2.853169e+000  0.000000e+000
      vertex  5.085183e+000 -3.184480e+000  0.000000e+000
    endloop
  endfacet
  facet normal  0.000000e+000  0.000000e+000 -1.000000e+000
    outer loop
      vertex  6.808330e-001 -5.961247e+000  0.000000e+000
      vertex  5.085183e+000 -3.184480e+000  0.000000e+000
      vertex  3.199898e+000 -5.075496e+000  0.000000e+000
    endloop
  endfacet
  facet normal  0.000000e+000  -0.000000e+000 -1.000000e+000
    outer loop
      vertex -1.209330e+001  1.809642e+001  0.000000e+000
      vertex -1.121520e+001  2.061816e+001  0.000000e+000
      vertex -6.766414e+000  1.807008e+001  0.000000e+000
    endloop
  endfacet
  facet normal  0.000000e+000  0.000000e+000 -1.000000e+000
    outer loop
      vertex -6.766414e+000  1.807008e+001  0.000000e+000
      vertex -1.121520e+001  2.061816e+001  0.000000e+000
      vertex -6.130017e+000  1.833368e+001  0.000000e+000
    endloop
  endfacet
  facet normal  -0.000000e+000  0.000000e+000 -1.000000e+000
    outer loop
      vertex -3.000000e+000 -1.070518e-015  0.000000e+000
      vertex -2.427051e+000 -1.763356e+000  0.000000e+000
      vertex -5.660286e+000 -1.990265e+000  0.000000e+000
    endloop
  endfacet
  facet normal  0.000000e+000  0.000000e+000 -1.000000e+000
    outer loop
      vertex -5.660286e+000 -1.990265e+000  0.000000e+000
      vertex -2.427051e+000 -1.763356e+000  0.000000e+000
      vertex -9.270510e-001 -2.853169e+000  0.000000e+000
    endloop
  endfacet
  facet normal  -0.000000e+000  0.000000e+000 -1.000000e+000
    outer loop
      vertex -5.660286e+000 -1.990265e+000  0.000000e+000
      vertex -9.270510e-001 -2.853169e+000  0.000000e+000
      vertex -4.236198e+000 -4.249074e+000  0.000000e+000
    endloop
  endfacet
  facet normal  0.000000e+000  -0.000000e+000 -1.000000e+000
    outer loop
      vertex  9.270510e-001 -2.853169e+000  0.000000e+000
      vertex  2.427051e+000 -1.763356e+000  0.000000e+000
      vertex  5.085183e+000 -3.184480e+000  0.000000e+000
    endloop
  endfacet
  facet normal  0.000000e+000  0.000000e+000 -1.000000e+000
    outer loop
      vertex  5.085183e+000 -3.184480e+000  0.000000e+000
      vertex  2.427051e+000 -1.763356e+000  0.000000e+000
      vertex  3.000000e+000 -8.404323e-016  0.000000e+000
    endloop
  endfacet
  facet normal  0.000000e+000  0.000000e+000 -1.000000e+000
    outer loop
      vertex  5.085183e+000 -3.184480e+000  0.000000e+000
      vertex  3.000000e+000 -8.404323e-016  0.000000e+000
      vertex  5.963286e+000 -6.627392e-001  0.000000e+000
    endloop
  endfacet
  facet normal  5.877852e-001 -8.090170e-001  0.000000e+000
    outer loop
      vertex -7.725425e-001  2.377641e+000  5.000000e-001
      vertex -2.022542e+000  1.469463e+000  5.000000e+000
      vertex -2.022542e+000  1.469463e+000  5.000000e-001
    endloop
  endfacet
  facet normal  9.510565e-001 -3.090170e-001  0.000000e+000
    outer loop
      vertex -2.022542e+000  1.469463e+000  5.000000e-001
      vertex -2.022542e+000  1.469463e+000  5.000000e+000
      vertex -2.500000e+000  3.061617e-016  5.000000e+000
    endloop
  endfacet
  facet normal  9.510565e-001 -3.090170e-001  0.000000e+000
    outer loop
      vertex -2.022542e+000  1.469463e+000  5.000000e-001
      vertex -2.500000e+000  3.061617e-016  5.000000e+000
      vertex -2.500000e+000  3.061617e-016  5.000000e-001
    endloop
  endfacet
  facet normal  5.877852e-001 -8.090170e-001  0.000000e+000
    outer loop
      vertex -2.022542e+000  1.469463e+000  5.000000e+000
      vertex -7.725425e-001  2.377641e+000  5.000000e-001
      vertex -7.725425e-001  2.377641e+000  5.000000e+000
    endloop
  endfacet
  facet normal  0.000000e+000 -1.000000e+000  0.000000e+000
    outer loop
      vertex -7.725425e-001  2.377641e+000  5.000000e+000
      vertex -7.725425e-001  2.377641e+000  5.000000e-001
      vertex  7.725425e-001  2.377641e+000  5.000000e-001
    endloop
  endfacet
  facet normal  0.000000e+000 -1.000000e+000  0.000000e+000
    outer loop
      vertex -7.725425e-001  2.377641e+000  5.000000e+000
      vertex  7.725425e-001  2.377641e+000  5.000000e-001
      vertex  7.725425e-001  2.377641e+000  5.000000e+000
    endloop
  endfacet
  facet normal -5.877852e-001 -8.090170e-001  -0.000000e+000
    outer loop
      vertex  7.725425e-001  2.377641e+000  5.000000e+000
      vertex  7.725425e-001  2.377641e+000  5.000000e-001
      vertex  2.022542e+000  1.469463e+000  5.000000e-001
    endloop
  endfacet
  facet normal -5.877852e-001 -8.090170e-001  0.000000e+000
    outer loop
      vertex  7.725425e-001  2.377641e+000  5.000000e+000
      vertex  2.022542e+000  1.469463e+000  5.000000e-001
      vertex  2.022542e+000  1.469463e+000  5.000000e+000
    endloop
  endfacet
  facet normal -9.510565e-001 -3.090170e-001  -0.000000e+000
    outer loop
      vertex  2.022542e+000  1.469463e+000  5.000000e+000
      vertex  2.022542e+000  1.469463e+000  5.000000e-001
      vertex  2.500000e+000 -2.832769e-015  5.000000e-001
    endloop
  endfacet
  facet normal -9.510565e-001 -3.090170e-001  1.945275e-016
    outer loop
      vertex  2.022542e+000  1.469463e+000  5.000000e+000
      vertex  2.500000e+000 -2.832769e-015  5.000000e-001
      vertex  2.500000e+000  0.000000e+000  5.000000e+000
    endloop
  endfacet
  facet normal -5.877852e-001  8.090170e-001  0.000000e+000
    outer loop
      vertex  7.725425e-001 -2.377641e+000  5.000000e-001
      vertex  2.022542e+000 -1.469463e+000  5.000000e+000
      vertex  2.022542e+000 -1.469463e+000  5.000000e-001
    endloop
  endfacet
  facet normal -9.510565e-001  3.090170e-001  0.000000e+000
    outer loop
      vertex  2.022542e+000 -1.469463e+000  5.000000e-001
      vertex  2.022542e+000 -1.469463e+000  5.000000e+000
      vertex  2.500000e+000  0.000000e+000  5.000000e+000
    endloop
  endfacet
  facet normal -9.510565e-001  3.090170e-001 -1.945275e-016
    outer loop
      vertex  2.022542e+000 -1.469463e+000  5.000000e-001
      vertex  2.500000e+000  0.000000e+000  5.000000e+000
      vertex  2.500000e+000 -2.832769e-015  5.000000e-001
    endloop
  endfacet
  facet normal -5.877852e-001  8.090170e-001  0.000000e+000
    outer loop
      vertex  2.022542e+000 -1.469463e+000  5.000000e+000
      vertex  7.725425e-001 -2.377641e+000  5.000000e-001
      vertex  7.725425e-001 -2.377641e+000  5.000000e+000
    endloop
  endfacet
  facet normal  0.000000e+000  1.000000e+000  0.000000e+000
    outer loop
      vertex  7.725425e-001 -2.377641e+000  5.000000e+000
      vertex  7.725425e-001 -2.377641e+000  5.000000e-001
      vertex -7.725425e-001 -2.377641e+000  5.000000e-001
    endloop
  endfacet
  facet normal  0.000000e+000  1.000000e+000  0.000000e+000
    outer loop
      vertex  7.725425e-001 -2.377641e+000  5.000000e+000
      vertex -7.725425e-001 -2.377641e+000  5.000000e-001
      vertex -7.725425e-001 -2.377641e+000  5.000000e+000
    endloop
  endfacet
  facet normal  5.877852e-001  8.090170e-001  0.000000e+000
    outer loop
      vertex -7.725425e-001 -2.377641e+000  5.000000e+000
      vertex -7.725425e-001 -2.377641e+000  5.000000e-001
      vertex -2.022542e+000 -1.469463e+000  5.000000e-001
    endloop
  endfacet
  facet normal  5.877852e-001  8.090170e-001  -0.000000e+000
    outer loop
      vertex -7.725425e-001 -2.377641e+000  5.000000e+000
      vertex -2.022542e+000 -1.469463e+000  5.000000e-001
      vertex -2.022542e+000 -1.469463e+000  5.000000e+000
    endloop
  endfacet
  facet normal  9.510565e-001  3.090170e-001  0.000000e+000
    outer loop
      vertex -2.022542e+000 -1.469463e+000  5.000000e+000
      vertex -2.022542e+000 -1.469463e+000  5.000000e-001
      vertex -2.500000e+000  3.061617e-016  5.000000e-001
    endloop
  endfacet
  facet normal  9.510565e-001  3.090170e-001  -0.000000e+000
    outer loop
      vertex -2.022542e+000 -1.469463e+000  5.000000e+000
      vertex -2.500000e+000  3.061617e-016  5.000000e-001
      vertex -2.500000e+000  3.061617e-016  5.000000e+000
    endloop
  endfacet
  facet normal  6.891518e-001  2.239190e-001 -6.891518e-001
    outer loop
      vertex -3.000000e+000 -1.070518e-015  0.000000e+000
      vertex -2.500000e+000  3.061617e-016  5.000000e-001
      vertex -2.427051e+000 -1.763356e+000  0.000000e+000
    endloop
  endfacet
  facet normal  6.891517e-001  2.239190e-001 -6.891518e-001
    outer loop
      vertex -2.427051e+000 -1.763356e+000  0.000000e+000
      vertex -2.500000e+000  3.061617e-016  5.000000e-001
      vertex -2.022542e+000 -1.469463e+000  5.000000e-001
    endloop
  endfacet
  facet normal  4.259192e-001  5.862275e-001 -6.891518e-001
    outer loop
      vertex -2.427051e+000 -1.763356e+000  0.000000e+000
      vertex -2.022542e+000 -1.469463e+000  5.000000e-001
      vertex -9.270510e-001 -2.853169e+000  0.000000e+000
    endloop
  endfacet
  facet normal  4.259192e-001  5.862275e-001 -6.891518e-001
    outer loop
      vertex -9.270510e-001 -2.853169e+000  0.000000e+000
      vertex -2.022542e+000 -1.469463e+000  5.000000e-001
      vertex -7.725425e-001 -2.377641e+000  5.000000e-001
    endloop
  endfacet
  facet normal  0.000000e+000  7.246171e-001 -6.891518e-001
    outer loop
      vertex -9.270510e-001 -2.853169e+000  0.000000e+000
      vertex -7.725425e-001 -2.377641e+000  5.000000e-001
      vertex  9.270510e-001 -2.853169e+000  0.000000e+000
    endloop
  endfacet
  facet normal  0.000000e+000  7.246171e-001 -6.891518e-001
    outer loop
      vertex  9.270510e-001 -2.853169e+000  0.000000e+000
      vertex -7.725425e-001 -2.377641e+000  5.000000e-001
      vertex  7.725425e-001 -2.377641e+000  5.000000e-001
    endloop
  endfacet
  facet normal -4.259192e-001  5.862275e-001 -6.891518e-001
    outer loop
      vertex  9.270510e-001 -2.853169e+000  0.000000e+000
      vertex  7.725425e-001 -2.377641e+000  5.000000e-001
      vertex  2.427051e+000 -1.763356e+000  0.000000e+000
    endloop
  endfacet
  facet normal -4.259191e-001  5.862274e-001 -6.891517e-001
    outer loop
      vertex  2.427051e+000 -1.763356e+000  0.000000e+000
      vertex  7.725425e-001 -2.377641e+000  5.000000e-001
      vertex  2.022542e+000 -1.469463e+000  5.000000e-001
    endloop
  endfacet
  facet normal -6.891518e-001  2.239189e-001 -6.891519e-001
    outer loop
      vertex  2.427051e+000 -1.763356e+000  0.000000e+000
      vertex  2.022542e+000 -1.469463e+000  5.000000e-001
      vertex  3.000000e+000 -8.404323e-016  0.000000e+000
    endloop
  endfacet
  facet normal -6.891518e-001  2.239190e-001 -6.891518e-001
    outer loop
      vertex  3.000000e+000 -8.404323e-016  0.000000e+000
      vertex  2.022542e+000 -1.469463e+000  5.000000e-001
      vertex  2.500000e+000 -2.832769e-015  5.000000e-001
    endloop
  endfacet
  facet normal -6.891518e-001 -2.239190e-001 -6.891518e-001
    outer loop
      vertex  3.000000e+000 -8.404323e-016  0.000000e+000
      vertex  2.500000e+000 -2.832769e-015  5.000000e-001
      vertex  2.427051e+000  1.763356e+000  0.000000e+000
    endloop
  endfacet
  facet normal -6.891517e-001 -2.239190e-001 -6.891518e-001
    outer loop
      vertex  2.427051e+000  1.763356e+000  0.000000e+000
      vertex  2.500000e+000 -2.832769e-015  5.000000e-001
      vertex  2.022542e+000  1.469463e+000  5.000000e-001
    endloop
  endfacet
  facet normal -4.259192e-001 -5.862275e-001 -6.891518e-001
    outer loop
      vertex  2.427051e+000  1.763356e+000  0.000000e+000
      vertex  2.022542e+000  1.469463e+000  5.000000e-001
      vertex  9.270510e-001  2.853169e+000  0.000000e+000
    endloop
  endfacet
  facet normal -4.259192e-001 -5.862275e-001 -6.891518e-001
    outer loop
      vertex  9.270510e-001  2.853169e+000  0.000000e+000
      vertex  2.022542e+000  1.469463e+000  5.000000e-001
      vertex  7.725425e-001  2.377641e+000  5.000000e-001
    endloop
  endfacet
  facet normal  0.000000e+000 -7.246171e-001 -6.891518e-001
    outer loop
      vertex  9.270510e-001  2.853169e+000  0.000000e+000
      vertex  7.725425e-001  2.377641e+000  5.000000e-001
      vertex -9.270510e-001  2.853169e+000  0.000000e+000
    endloop
  endfacet
  facet normal  0.000000e+000 -7.246171e-001 -6.891518e-001
    outer loop
      vertex -9.270510e-001  2.853169e+000  0.000000e+000
      vertex  7.725425e-001  2.377641e+000  5.000000e-001
      vertex -7.725425e-001  2.377641e+000  5.000000e-001
    endloop
  endfacet
  facet normal  4.259192e-001 -5.862275e-001 -6.891518e-001
    outer loop
      vertex -9.270510e-001  2.853169e+000  0.000000e+000
      vertex -7.725425e-001  2.377641e+000  5.000000e-001
      vertex -2.427051e+000  1.763356e+000  0.000000e+000
    endloop
  endfacet
  facet normal  4.259191e-001 -5.862274e-001 -6.891517e-001
    outer loop
      vertex -2.427051e+000  1.763356e+000  0.000000e+000
      vertex -7.725425e-001  2.377641e+000  5.000000e-001
      vertex -2.022542e+000  1.469463e+000  5.000000e-001
    endloop
  endfacet
  facet normal  6.891518e-001 -2.239189e-001 -6.891519e-001
    outer loop
      vertex -2.427051e+000  1.763356e+000  0.000000e+000
      vertex -2.022542e+000  1.469463e+000  5.000000e-001
      vertex -3.000000e+000 -1.070518e-015  0.000000e+000
    endloop
  endfacet
  facet normal  6.891518e-001 -2.239190e-001 -6.891518e-001
    outer loop
      vertex -3.000000e+000 -1.070518e-015  0.000000e+000
      vertex -2.022542e+000  1.469463e+000  5.000000e-001
      vertex -2.500000e+000  3.061617e-016  5.000000e-001
    endloop
  endfacet
  facet normal  0.000000e+000  0.000000e+000  1.000000e+000
    outer loop
      vertex -1.153583e+001  1.483038e+001  5.500000e+000
      vertex -6.130017e+000  1.653368e+001  5.500000e+000
      vertex -6.766414e+000  1.679729e+001  5.500000e+000
    endloop
  endfacet
  facet normal  0.000000e+000  0.000000e+000  1.000000e+000
    outer loop
      vertex -2.389079e+000  1.274269e+001  5.500000e+000
      vertex -7.242041e-001  1.483038e+001  5.500000e+000
      vertex -4.794892e+000  1.158412e+001  5.500000e+000
    endloop
  endfacet
  facet normal  0.000000e+000  -0.000000e+000  1.000000e+000
    outer loop
      vertex -4.794892e+000  1.158412e+001  5.500000e+000
      vertex -7.242041e-001  1.483038e+001  5.500000e+000
      vertex -6.130017e+000  1.653368e+001  5.500000e+000
    endloop
  endfacet
  facet normal  0.000000e+000  0.000000e+000  1.000000e+000
    outer loop
      vertex -4.794892e+000  1.158412e+001  5.500000e+000
      vertex -6.130017e+000  1.653368e+001  5.500000e+000
      vertex -7.465143e+000  1.158412e+001  5.500000e+000
    endloop
  endfacet
  facet normal  0.000000e+000  -0.000000e+000  1.000000e+000
    outer loop
      vertex -7.465143e+000  1.158412e+001  5.500000e+000
      vertex -6.130017e+000  1.653368e+001  5.500000e+000
      vertex -1.153583e+001  1.483038e+001  5.500000e+000
    endloop
  endfacet
  facet normal  0.000000e+000  0.000000e+000  1.000000e+000
    outer loop
      vertex -7.465143e+000  1.158412e+001  5.500000e+000
      vertex -1.153583e+001  1.483038e+001  5.500000e+000
      vertex -9.870956e+000  1.274269e+001  5.500000e+000
    endloop
  endfacet
  facet normal  0.000000e+000  0.000000e+000  1.000000e+000
    outer loop
      vertex -7.242041e-001  2.003699e+001  5.500000e+000
      vertex -2.389079e+000  2.212467e+001  5.500000e+000
      vertex -6.130017e+000  1.833368e+001  5.500000e+000
    endloop
  endfacet
  facet normal  0.000000e+000  0.000000e+000  1.000000e+000
    outer loop
      vertex -6.130017e+000  1.833368e+001  5.500000e+000
      vertex -2.389079e+000  2.212467e+001  5.500000e+000
      vertex -4.794892e+000  2.328325e+001  5.500000e+000
    endloop
  endfacet
  facet normal  0.000000e+000  0.000000e+000  1.000000e+000
    outer loop
      vertex -6.130017e+000  1.833368e+001  5.500000e+000
      vertex -4.794892e+000  2.328325e+001  5.500000e+000
      vertex -9.870956e+000  2.212467e+001  5.500000e+000
    endloop
  endfacet
  facet normal  0.000000e+000  0.000000e+000  1.000000e+000
    outer loop
      vertex -9.870956e+000  2.212467e+001  5.500000e+000
      vertex -4.794892e+000  2.328325e+001  5.500000e+000
      vertex -7.465143e+000  2.328325e+001  5.500000e+000
    endloop
  endfacet
  facet normal  0.000000e+000  0.000000e+000  1.000000e+000
    outer loop
      vertex -1.213002e+001  1.743368e+001  5.500000e+000
      vertex -6.766414e+000  1.807008e+001  5.500000e+000
      vertex -1.153583e+001  2.003699e+001  5.500000e+000
    endloop
  endfacet
  facet normal  0.000000e+000  0.000000e+000  1.000000e+000
    outer loop
      vertex -1.153583e+001  2.003699e+001  5.500000e+000
      vertex -6.766414e+000  1.807008e+001  5.500000e+000
      vertex -6.130017e+000  1.833368e+001  5.500000e+000
    endloop
  endfacet
  facet normal  0.000000e+000  0.000000e+000  1.000000e+000
    outer loop
      vertex -1.153583e+001  2.003699e+001  5.500000e+000
      vertex -6.130017e+000  1.833368e+001  5.500000e+000
      vertex -9.870956e+000  2.212467e+001  5.500000e+000
    endloop
  endfacet
  facet normal  0.000000e+000  0.000000e+000  1.000000e+000
    outer loop
      vertex -1.153583e+001  1.483038e+001  5.500000e+000
      vertex -6.766414e+000  1.679729e+001  5.500000e+000
      vertex -1.213002e+001  1.743368e+001  5.500000e+000
    endloop
  endfacet
  facet normal  -0.000000e+000  0.000000e+000  1.000000e+000
    outer loop
      vertex -1.213002e+001  1.743368e+001  5.500000e+000
      vertex -6.766414e+000  1.679729e+001  5.500000e+000
      vertex -7.030017e+000  1.743368e+001  5.500000e+000
    endloop
  endfacet
  facet normal  0.000000e+000  -0.000000e+000  9.999999e-001
    outer loop
      vertex -1.213002e+001  1.743368e+001  5.500000e+000
      vertex -7.030017e+000  1.743368e+001  5.500000e+000
      vertex -6.766414e+000  1.807008e+001  5.500000e+000
    endloop
  endfacet
  facet normal  -0.000000e+000  0.000000e+000  1.000000e+000
    outer loop
      vertex -7.242041e-001  2.003699e+001  5.500000e+000
      vertex -6.130017e+000  1.833368e+001  5.500000e+000
      vertex -1.300174e-001  1.743368e+001  5.500000e+000
    endloop
  endfacet
  facet normal  0.000000e+000  0.000000e+000  1.000000e+000
    outer loop
      vertex -1.300174e-001  1.743368e+001  5.500000e+000
      vertex -6.130017e+000  1.833368e+001  5.500000e+000
      vertex -5.493621e+000  1.807008e+001  5.500000e+000
    endloop
  endfacet
  facet normal  0.000000e+000  0.000000e+000  9.999999e-001
    outer loop
      vertex -1.300174e-001  1.743368e+001  5.500000e+000
      vertex -5.493621e+000  1.807008e+001  5.500000e+000
      vertex -5.230017e+000  1.743368e+001  5.500000e+000
    endloop
  endfacet
  facet normal  -0.000000e+000  0.000000e+000  9.999999e-001
    outer loop
      vertex -1.300174e-001  1.743368e+001  5.500000e+000
      vertex -5.230017e+000  1.743368e+001  5.500000e+000
      vertex -7.242041e-001  1.483038e+001  5.500000e+000
    endloop
  endfacet
  facet normal  0.000000e+000  0.000000e+000  1.000000e+000
    outer loop
      vertex -7.242041e-001  1.483038e+001  5.500000e+000
      vertex -5.230017e+000  1.743368e+001  5.500000e+000
      vertex -5.493621e+000  1.679729e+001  5.500000e+000
    endloop
  endfacet
  facet normal  0.000000e+000  0.000000e+000  1.000000e+000
    outer loop
      vertex -7.242041e-001  1.483038e+001  5.500000e+000
      vertex -5.493621e+000  1.679729e+001  5.500000e+000
      vertex -6.130017e+000  1.653368e+001  5.500000e+000
    endloop
  endfacet
  facet normal -9.932934e-001 -1.134436e-001 -2.233036e-002
    outer loop
      vertex -1.213002e+001  1.743368e+001  5.000000e+000
      vertex -1.209330e+001  1.809642e+001  0.000000e+000
      vertex -1.179030e+001  1.544342e+001  0.000000e+000
    endloop
  endfacet
  facet normal -9.725645e-001  2.314397e-001  2.353537e-002
    outer loop
      vertex -1.213002e+001  1.743368e+001  5.000000e+000
      vertex -1.148689e+001  2.013626e+001  5.000000e+000
      vertex -1.209330e+001  1.809642e+001  0.000000e+000
    endloop
  endfacet
  facet normal  7.608903e-001 -6.420202e-001 -9.410635e-002
    outer loop
      vertex -7.731445e-001  1.473111e+001  5.000000e+000
      vertex -2.389079e+000  1.274269e+001  5.500000e+000
      vertex -2.564655e+000  1.260790e+001  5.000000e+000
    endloop
  endfacet
  facet normal  4.321166e-001 -8.972991e-001  9.016420e-002
    outer loop
      vertex -2.564655e+000  1.260790e+001  5.000000e+000
      vertex -2.389079e+000  1.274269e+001  5.500000e+000
      vertex -4.794892e+000  1.158412e+001  5.500000e+000
    endloop
  endfacet
  facet normal  3.883230e-001 -9.116470e-001 -1.345543e-001
    outer loop
      vertex -2.564655e+000  1.260790e+001  5.000000e+000
      vertex -4.794892e+000  1.158412e+001  5.500000e+000
      vertex -5.120492e+000  1.151922e+001  5.000000e+000
    endloop
  endfacet
  facet normal  0.000000e+000 -9.916823e-001  1.287098e-001
    outer loop
      vertex -5.120492e+000  1.151922e+001  5.000000e+000
      vertex -4.794892e+000  1.158412e+001  5.500000e+000
      vertex -7.465143e+000  1.158412e+001  5.500000e+000
    endloop
  endfacet
  facet normal -6.357523e-002 -9.833044e-001 -1.705009e-001
    outer loop
      vertex -5.120492e+000  1.151922e+001  5.000000e+000
      vertex -7.465143e+000  1.158412e+001  5.500000e+000
      vertex -7.892748e+000  1.169846e+001  5.000000e+000
    endloop
  endfacet
  facet normal -4.280941e-001 -8.889465e-001  1.628180e-001
    outer loop
      vertex -7.892748e+000  1.169846e+001  5.000000e+000
      vertex -7.465143e+000  1.158412e+001  5.500000e+000
      vertex -9.870956e+000  1.274269e+001  5.500000e+000
    endloop
  endfacet
  facet normal -4.966418e-001 -8.441234e-001 -2.019967e-001
    outer loop
      vertex -7.892748e+000  1.169846e+001  5.000000e+000
      vertex -9.870956e+000  1.274269e+001  5.500000e+000
      vertex -1.028712e+001  1.310719e+001  5.000000e+000
    endloop
  endfacet
  facet normal -7.672026e-001 -6.118235e-001  1.925416e-001
    outer loop
      vertex -1.028712e+001  1.310719e+001  5.000000e+000
      vertex -9.870956e+000  1.274269e+001  5.500000e+000
      vertex -1.153583e+001  1.483038e+001  5.500000e+000
    endloop
  endfacet
  facet normal -9.442017e-001  3.287832e-001 -1.961747e-002
    outer loop
      vertex -1.209330e+001  1.809642e+001  0.000000e+000
      vertex -1.148689e+001  2.013626e+001  5.000000e+000
      vertex -1.121520e+001  2.061816e+001  0.000000e+000
    endloop
  endfacet
  facet normal -7.641197e-001  6.447448e-001  2.062049e-002
    outer loop
      vertex -1.121520e+001  2.061816e+001  0.000000e+000
      vertex -1.148689e+001  2.013626e+001  5.000000e+000
      vertex -9.695380e+000  2.225947e+001  5.000000e+000
    endloop
  endfacet
  facet normal -7.080827e-001  7.059368e-001 -1.649973e-002
    outer loop
      vertex -1.121520e+001  2.061816e+001  0.000000e+000
      vertex -9.695380e+000  2.225947e+001  5.000000e+000
      vertex -9.329915e+000  2.250918e+001  0.000000e+000
    endloop
  endfacet
  facet normal -3.918280e-001  9.198759e-001  1.730091e-002
    outer loop
      vertex -9.329915e+000  2.250918e+001  0.000000e+000
      vertex -9.695380e+000  2.225947e+001  5.000000e+000
      vertex -7.139542e+000  2.334814e+001  5.000000e+000
    endloop
  endfacet
  facet normal -3.316830e-001  9.433016e-001 -1.297777e-002
    outer loop
      vertex -9.329915e+000  2.250918e+001  0.000000e+000
      vertex -7.139542e+000  2.334814e+001  5.000000e+000
      vertex -6.810850e+000  2.339493e+001  0.000000e+000
    endloop
  endfacet
  facet normal  6.451403e-002  9.978245e-001  1.357776e-002
    outer loop
      vertex -6.810850e+000  2.339493e+001  0.000000e+000
      vertex -7.139542e+000  2.334814e+001  5.000000e+000
      vertex -4.367287e+000  2.316891e+001  5.000000e+000
    endloop
  endfacet
  facet normal  1.104520e-001  9.938403e-001 -9.052815e-003
    outer loop
      vertex -6.810850e+000  2.339493e+001  0.000000e+000
      vertex -4.367287e+000  2.316891e+001  5.000000e+000
      vertex -4.156939e+000  2.309998e+001  0.000000e+000
    endloop
  endfacet
  facet normal  5.070722e-001  8.618518e-001  9.452268e-003
    outer loop
      vertex -4.156939e+000  2.309998e+001  0.000000e+000
      vertex -4.367287e+000  2.316891e+001  5.000000e+000
      vertex -1.972918e+000  2.176017e+001  5.000000e+000
    endloop
  endfacet
  facet normal -8.185831e-001 -5.266973e-001 -2.291544e-001
    outer loop
      vertex -1.179030e+001  1.544342e+001  5.000000e+000
      vertex -1.028712e+001  1.310719e+001  5.000000e+000
      vertex -1.153583e+001  1.483038e+001  5.500000e+000
    endloop
  endfacet
  facet normal -9.514822e-001 -2.171696e-001  2.179884e-001
    outer loop
      vertex -1.179030e+001  1.544342e+001  5.000000e+000
      vertex -1.153583e+001  1.483038e+001  5.500000e+000
      vertex -1.213002e+001  1.743368e+001  5.500000e+000
    endloop
  endfacet
  facet normal -9.857438e-001 -1.682539e-001  -0.000000e+000
    outer loop
      vertex -1.179030e+001  1.544342e+001  5.000000e+000
      vertex -1.213002e+001  1.743368e+001  5.500000e+000
      vertex -1.213002e+001  1.743368e+001  5.000000e+000
    endloop
  endfacet
  facet normal -9.857436e-001 -1.682539e-001  0.000000e+000
    outer loop
      vertex -1.179030e+001  1.544342e+001  5.000000e+000
      vertex -1.213002e+001  1.743368e+001  5.000000e+000
      vertex -1.179030e+001  1.544342e+001  0.000000e+000
    endloop
  endfacet
  facet normal  9.728340e-001 -2.315036e-001  0.000000e+000
    outer loop
      vertex -1.300174e-001  1.743368e+001  5.000000e+000
      vertex -1.300174e-001  1.743368e+001  5.500000e+000
      vertex -7.731445e-001  1.473111e+001  5.000000e+000
    endloop
  endfacet
  facet normal  9.736503e-001 -2.222293e-001 -5.117898e-002
    outer loop
      vertex -7.731445e-001  1.473111e+001  5.000000e+000
      vertex -1.300174e-001  1.743368e+001  5.500000e+000
      vertex -7.242041e-001  1.483038e+001  5.500000e+000
    endloop
  endfacet
  facet normal  7.809596e-001 -6.227946e-001  4.721214e-002
    outer loop
      vertex -7.731445e-001  1.473111e+001  5.000000e+000
      vertex -7.242041e-001  1.483038e+001  5.500000e+000
      vertex -2.389079e+000  1.274269e+001  5.500000e+000
    endloop
  endfacet
  facet normal  8.409609e-001  5.410959e-001  -0.000000e+000
    outer loop
      vertex -4.697308e-001  1.942395e+001  5.000000e+000
      vertex -4.697308e-001  1.942395e+001  0.000000e+000
      vertex -1.972918e+000  2.176017e+001  5.000000e+000
    endloop
  endfacet
  facet normal  8.459048e-001  5.333093e-001  5.124595e-003
    outer loop
      vertex -1.972918e+000  2.176017e+001  5.000000e+000
      vertex -4.697308e-001  1.942395e+001  0.000000e+000
      vertex -1.893819e+000  2.168276e+001  0.000000e+000
    endloop
  endfacet
  facet normal  5.307407e-001  8.475210e-001 -4.726339e-003
    outer loop
      vertex -1.972918e+000  2.176017e+001  5.000000e+000
      vertex -1.893819e+000  2.168276e+001  0.000000e+000
      vertex -4.156939e+000  2.309998e+001  0.000000e+000
    endloop
  endfacet
  facet normal  3.826848e-001 -9.238789e-001  0.000000e+000
    outer loop
      vertex -6.130017e+000  1.833368e+001  0.000000e+000
      vertex -6.766414e+000  1.807008e+001  5.500000e+000
      vertex -6.766414e+000  1.807008e+001  0.000000e+000
    endloop
  endfacet
  facet normal  9.238794e-001 -3.826840e-001  0.000000e+000
    outer loop
      vertex -6.766414e+000  1.807008e+001  0.000000e+000
      vertex -6.766414e+000  1.807008e+001  5.500000e+000
      vertex -7.030017e+000  1.743368e+001  5.500000e+000
    endloop
  endfacet
  facet normal  9.238794e-001 -3.826840e-001  0.000000e+000
    outer loop
      vertex -6.766414e+000  1.807008e+001  0.000000e+000
      vertex -7.030017e+000  1.743368e+001  5.500000e+000
      vertex -7.030017e+000  1.743368e+001  0.000000e+000
    endloop
  endfacet
  facet normal  3.826848e-001 -9.238789e-001  0.000000e+000
    outer loop
      vertex -6.766414e+000  1.807008e+001  5.500000e+000
      vertex -6.130017e+000  1.833368e+001  0.000000e+000
      vertex -6.130017e+000  1.833368e+001  5.500000e+000
    endloop
  endfacet
  facet normal -3.826851e-001 -9.238790e-001  -0.000000e+000
    outer loop
      vertex -6.130017e+000  1.833368e+001  5.500000e+000
      vertex -6.130017e+000  1.833368e+001  0.000000e+000
      vertex -5.493621e+000  1.807008e+001  0.000000e+000
    endloop
  endfacet
  facet normal -3.826851e-001 -9.238790e-001  0.000000e+000
    outer loop
      vertex -6.130017e+000  1.833368e+001  5.500000e+000
      vertex -5.493621e+000  1.807008e+001  0.000000e+000
      vertex -5.493621e+000  1.807008e+001  5.500000e+000
    endloop
  endfacet
  facet normal -9.238790e-001 -3.826846e-001  -0.000000e+000
    outer loop
      vertex -5.493621e+000  1.807008e+001  5.500000e+000
      vertex -5.493621e+000  1.807008e+001  0.000000e+000
      vertex -5.230017e+000  1.743368e+001  0.000000e+000
    endloop
  endfacet
  facet normal -9.238790e-001 -3.826846e-001  0.000000e+000
    outer loop
      vertex -5.493621e+000  1.807008e+001  5.500000e+000
      vertex -5.230017e+000  1.743368e+001  0.000000e+000
      vertex -5.230017e+000  1.743368e+001  5.500000e+000
    endloop
  endfacet
  facet normal -3.826851e-001  9.238790e-001  0.000000e+000
    outer loop
      vertex -6.130017e+000  1.653368e+001  0.000000e+000
      vertex -5.493621e+000  1.679729e+001  5.500000e+000
      vertex -5.493621e+000  1.679729e+001  0.000000e+000
    endloop
  endfacet
  facet normal -9.238794e-001  3.826836e-001  0.000000e+000
    outer loop
      vertex -5.493621e+000  1.679729e+001  0.000000e+000
      vertex -5.493621e+000  1.679729e+001  5.500000e+000
      vertex -5.230017e+000  1.743368e+001  5.500000e+000
    endloop
  endfacet
  facet normal -9.238794e-001  3.826836e-001  0.000000e+000
    outer loop
      vertex -5.493621e+000  1.679729e+001  0.000000e+000
      vertex -5.230017e+000  1.743368e+001  5.500000e+000
      vertex -5.230017e+000  1.743368e+001  0.000000e+000
    endloop
  endfacet
  facet normal -3.826851e-001  9.238790e-001  0.000000e+000
    outer loop
      vertex -5.493621e+000  1.679729e+001  5.500000e+000
      vertex -6.130017e+000  1.653368e+001  0.000000e+000
      vertex -6.130017e+000  1.653368e+001  5.500000e+000
    endloop
  endfacet
  facet normal  3.826848e-001  9.238789e-001  0.000000e+000
    outer loop
      vertex -6.130017e+000  1.653368e+001  5.500000e+000
      vertex -6.130017e+000  1.653368e+001  0.000000e+000
      vertex -6.766414e+000  1.679729e+001  0.000000e+000
    endloop
  endfacet
  facet normal  3.826848e-001  9.238789e-001  -0.000000e+000
    outer loop
      vertex -6.130017e+000  1.653368e+001  5.500000e+000
      vertex -6.766414e+000  1.679729e+001  0.000000e+000
      vertex -6.766414e+000  1.679729e+001  5.500000e+000
    endloop
  endfacet
  facet normal  9.238797e-001  3.826830e-001  0.000000e+000
    outer loop
      vertex -6.766414e+000  1.679729e+001  5.500000e+000
      vertex -6.766414e+000  1.679729e+001  0.000000e+000
      vertex -7.030017e+000  1.743368e+001  0.000000e+000
    endloop
  endfacet
  facet normal  9.238797e-001  3.826830e-001  -0.000000e+000
    outer loop
      vertex -6.766414e+000  1.679729e+001  5.500000e+000
      vertex -7.030017e+000  1.743368e+001  0.000000e+000
      vertex -7.030017e+000  1.743368e+001  5.500000e+000
    endloop
  endfacet
  facet normal -7.608904e-001  6.420199e-001 -9.410732e-002
    outer loop
      vertex -1.148689e+001  2.013626e+001  5.000000e+000
      vertex -9.870956e+000  2.212467e+001  5.500000e+000
      vertex -9.695380e+000  2.225947e+001  5.000000e+000
    endloop
  endfacet
  facet normal -4.321166e-001  8.972992e-001  9.016277e-002
    outer loop
      vertex -9.695380e+000  2.225947e+001  5.000000e+000
      vertex -9.870956e+000  2.212467e+001  5.500000e+000
      vertex -7.465143e+000  2.328325e+001  5.500000e+000
    endloop
  endfacet
  facet normal -3.883228e-001  9.116469e-001 -1.345560e-001
    outer loop
      vertex -9.695380e+000  2.225947e+001  5.000000e+000
      vertex -7.465143e+000  2.328325e+001  5.500000e+000
      vertex -7.139542e+000  2.334814e+001  5.000000e+000
    endloop
  endfacet
  facet normal  -0.000000e+000  9.916825e-001  1.287079e-001
    outer loop
      vertex -7.139542e+000  2.334814e+001  5.000000e+000
      vertex -7.465143e+000  2.328325e+001  5.500000e+000
      vertex -4.794892e+000  2.328325e+001  5.500000e+000
    endloop
  endfacet
  facet normal  6.357522e-002  9.833041e-001 -1.705028e-001
    outer loop
      vertex -7.139542e+000  2.334814e+001  5.000000e+000
      vertex -4.794892e+000  2.328325e+001  5.500000e+000
      vertex -4.367287e+000  2.316891e+001  5.000000e+000
    endloop
  endfacet
  facet normal  4.280942e-001  8.889467e-001  1.628160e-001
    outer loop
      vertex -4.367287e+000  2.316891e+001  5.000000e+000
      vertex -4.794892e+000  2.328325e+001  5.500000e+000
      vertex -2.389079e+000  2.212467e+001  5.500000e+000
    endloop
  endfacet
  facet normal  4.966415e-001  8.441232e-001 -2.019978e-001
    outer loop
      vertex -4.367287e+000  2.316891e+001  5.000000e+000
      vertex -2.389079e+000  2.212467e+001  5.500000e+000
      vertex -1.972918e+000  2.176017e+001  5.000000e+000
    endloop
  endfacet
  facet normal  7.672026e-001  6.118236e-001  1.925412e-001
    outer loop
      vertex -1.972918e+000  2.176017e+001  5.000000e+000
      vertex -2.389079e+000  2.212467e+001  5.500000e+000
      vertex -7.242041e-001  2.003699e+001  5.500000e+000
    endloop
  endfacet
  facet normal -9.728340e-001  2.315038e-001  0.000000e+000
    outer loop
      vertex -1.213002e+001  1.743368e+001  5.000000e+000
      vertex -1.213002e+001  1.743368e+001  5.500000e+000
      vertex -1.148689e+001  2.013626e+001  5.000000e+000
    endloop
  endfacet
  facet normal -9.736502e-001  2.222293e-001 -5.117996e-002
    outer loop
      vertex -1.148689e+001  2.013626e+001  5.000000e+000
      vertex -1.213002e+001  1.743368e+001  5.500000e+000
      vertex -1.153583e+001  2.003699e+001  5.500000e+000
    endloop
  endfacet
  facet normal -7.809598e-001  6.227945e-001  4.721046e-002
    outer loop
      vertex -1.148689e+001  2.013626e+001  5.000000e+000
      vertex -1.153583e+001  2.003699e+001  5.500000e+000
      vertex -9.870956e+000  2.212467e+001  5.500000e+000
    endloop
  endfacet
  facet normal  9.749279e-001  2.225210e-001  -0.000000e+000
    outer loop
      vertex -1.300174e-001  1.743368e+001  5.500000e+000
      vertex -1.300174e-001  1.743368e+001  5.000000e+000
      vertex -7.242041e-001  2.003699e+001  5.500000e+000
    endloop
  endfacet
  facet normal  9.453599e-001  1.613612e-001  2.832970e-001
    outer loop
      vertex -7.242041e-001  2.003699e+001  5.500000e+000
      vertex -1.300174e-001  1.743368e+001  5.000000e+000
      vertex -4.697308e-001  1.942395e+001  5.000000e+000
    endloop
  endfacet
  facet normal  8.185830e-001  5.266973e-001 -2.291550e-001
    outer loop
      vertex -7.242041e-001  2.003699e+001  5.500000e+000
      vertex -4.697308e-001  1.942395e+001  5.000000e+000
      vertex -1.972918e+000  2.176017e+001  5.000000e+000
    endloop
  endfacet
  facet normal  0.000000e+000  0.000000e+000  9.999999e-001
    outer loop
      vertex -7.725425e-001  2.377641e+000  5.000000e+000
      vertex -2.564655e+000  1.260790e+001  5.000000e+000
      vertex -5.120492e+000  1.151922e+001  5.000000e+000
    endloop
  endfacet
  facet normal  0.000000e+000  0.000000e+000  9.999999e-001
    outer loop
      vertex -2.022542e+000  1.469463e+000  5.000000e+000
      vertex -7.725425e-001  2.377641e+000  5.000000e+000
      vertex -5.120492e+000  1.151922e+001  5.000000e+000
    endloop
  endfacet
  facet normal  0.000000e+000  0.000000e+000  1.000000e+000
    outer loop
      vertex  5.085183e+000 -3.184480e+000  5.000000e+000
      vertex  2.022542e+000 -1.469463e+000  5.000000e+000
      vertex  7.725425e-001 -2.377641e+000  5.000000e+000
    endloop
  endfacet
  facet normal  0.000000e+000  0.000000e+000  1.000000e+000
    outer loop
      vertex  5.660286e+000  1.990265e+000  5.000000e+000
      vertex -4.697308e-001  1.942395e+001  5.000000e+000
      vertex -1.300174e-001  1.743368e+001  5.000000e+000
    endloop
  endfacet
  facet normal  0.000000e+000  0.000000e+000  1.000000e+000
    outer loop
      vertex  5.660286e+000  1.990265e+000  5.000000e+000
      vertex -1.300174e-001  1.743368e+001  5.000000e+000
      vertex  7.725425e-001  2.377641e+000  5.000000e+000
    endloop
  endfacet
  facet normal  0.000000e+000  0.000000e+000  1.000000e+000
    outer loop
      vertex  5.660286e+000  1.990265e+000  5.000000e+000
      vertex  7.725425e-001  2.377641e+000  5.000000e+000
      vertex  2.022542e+000  1.469463e+000  5.000000e+000
    endloop
  endfacet
  facet normal  -0.000000e+000  0.000000e+000  1.000000e+000
    outer loop
      vertex  5.660286e+000  1.990265e+000  5.000000e+000
      vertex  2.022542e+000  1.469463e+000  5.000000e+000
      vertex  5.963286e+000 -6.627392e-001  5.000000e+000
    endloop
  endfacet
  facet normal  0.000000e+000  -0.000000e+000  1.000000e+000
    outer loop
      vertex -5.660286e+000 -1.990265e+000  5.000000e+000
      vertex -4.236198e+000 -4.249074e+000  5.000000e+000
      vertex -7.725425e-001 -2.377641e+000  5.000000e+000
    endloop
  endfacet
  facet normal  0.000000e+000  0.000000e+000  1.000000e+000
    outer loop
      vertex -5.660286e+000 -1.990265e+000  5.000000e+000
      vertex -7.725425e-001 -2.377641e+000  5.000000e+000
      vertex -2.022542e+000 -1.469463e+000  5.000000e+000
    endloop
  endfacet
  facet normal  0.000000e+000  0.000000e+000  9.999999e-001
    outer loop
      vertex -5.660286e+000 -1.990265e+000  5.000000e+000
      vertex -2.022542e+000 -1.469463e+000  5.000000e+000
      vertex -2.500000e+000  3.061617e-016  5.000000e+000
    endloop
  endfacet
  facet normal  0.000000e+000  -0.000000e+000  1.000000e+000
    outer loop
      vertex -5.660286e+000 -1.990265e+000  5.000000e+000
      vertex -2.500000e+000  3.061617e-016  5.000000e+000
      vertex -2.022542e+000  1.469463e+000  5.000000e+000
    endloop
  endfacet
  facet normal  0.000000e+000  0.000000e+000  9.999999e-001
    outer loop
      vertex -5.660286e+000 -1.990265e+000  5.000000e+000
      vertex -2.022542e+000  1.469463e+000  5.000000e+000
      vertex -5.120492e+000  1.151922e+001  5.000000e+000
    endloop
  endfacet
  facet normal  0.000000e+000  0.000000e+000  1.000000e+000
    outer loop
      vertex -5.660286e+000 -1.990265e+000  5.000000e+000
      vertex -5.120492e+000  1.151922e+001  5.000000e+000
      vertex -7.892748e+000  1.169846e+001  5.000000e+000
    endloop
  endfacet
  facet normal  0.000000e+000  0.000000e+000  1.000000e+000
    outer loop
      vertex -5.660286e+000 -1.990265e+000  5.000000e+000
      vertex -7.892748e+000  1.169846e+001  5.000000e+000
      vertex -1.028712e+001  1.310719e+001  5.000000e+000
    endloop
  endfacet
  facet normal  0.000000e+000  0.000000e+000  1.000000e+000
    outer loop
      vertex -5.660286e+000 -1.990265e+000  5.000000e+000
      vertex -1.028712e+001  1.310719e+001  5.000000e+000
      vertex -1.179030e+001  1.544342e+001  5.000000e+000
    endloop
  endfacet
  facet normal  0.000000e+000  0.000000e+000  1.000000e+000
    outer loop
      vertex  3.199898e+000 -5.075496e+000  5.000000e+000
      vertex  5.085183e+000 -3.184480e+000  5.000000e+000
      vertex  6.808330e-001 -5.961247e+000  5.000000e+000
    endloop
  endfacet
  facet normal  0.000000e+000  0.000000e+000  1.000000e+000
    outer loop
      vertex  6.808330e-001 -5.961247e+000  5.000000e+000
      vertex  5.085183e+000 -3.184480e+000  5.000000e+000
      vertex  7.725425e-001 -2.377641e+000  5.000000e+000
    endloop
  endfacet
  facet normal  0.000000e+000  0.000000e+000  1.000000e+000
    outer loop
      vertex  6.808330e-001 -5.961247e+000  5.000000e+000
      vertex  7.725425e-001 -2.377641e+000  5.000000e+000
      vertex -1.973079e+000 -5.666300e+000  5.000000e+000
    endloop
  endfacet
  facet normal  0.000000e+000  0.000000e+000  9.999999e-001
    outer loop
      vertex -1.973079e+000 -5.666300e+000  5.000000e+000
      vertex  7.725425e-001 -2.377641e+000  5.000000e+000
      vertex -7.725425e-001 -2.377641e+000  5.000000e+000
    endloop
  endfacet
  facet normal  0.000000e+000  0.000000e+000  1.000000e+000
    outer loop
      vertex -1.973079e+000 -5.666300e+000  5.000000e+000
      vertex -7.725425e-001 -2.377641e+000  5.000000e+000
      vertex -4.236198e+000 -4.249074e+000  5.000000e+000
    endloop
  endfacet
  facet normal  0.000000e+000  0.000000e+000  1.000000e+000
    outer loop
      vertex  7.725425e-001  2.377641e+000  5.000000e+000
      vertex -1.300174e-001  1.743368e+001  5.000000e+000
      vertex -7.725425e-001  2.377641e+000  5.000000e+000
    endloop
  endfacet
  facet normal  0.000000e+000  -0.000000e+000  1.000000e+000
    outer loop
      vertex -7.725425e-001  2.377641e+000  5.000000e+000
      vertex -1.300174e-001  1.743368e+001  5.000000e+000
      vertex -7.731445e-001  1.473111e+001  5.000000e+000
    endloop
  endfacet
  facet normal  0.000000e+000  0.000000e+000  9.999999e-001
    outer loop
      vertex -7.725425e-001  2.377641e+000  5.000000e+000
      vertex -7.731445e-001  1.473111e+001  5.000000e+000
      vertex -2.564655e+000  1.260790e+001  5.000000e+000
    endloop
  endfacet
  facet normal  0.000000e+000  0.000000e+000  1.000000e+000
    outer loop
      vertex  2.022542e+000 -1.469463e+000  5.000000e+000
      vertex  5.085183e+000 -3.184480e+000  5.000000e+000
      vertex  2.500000e+000  0.000000e+000  5.000000e+000
    endloop
  endfacet
  facet normal  0.000000e+000  0.000000e+000  1.000000e+000
    outer loop
      vertex  2.500000e+000  0.000000e+000  5.000000e+000
      vertex  5.085183e+000 -3.184480e+000  5.000000e+000
      vertex  5.963286e+000 -6.627392e-001  5.000000e+000
    endloop
  endfacet
  facet normal  0.000000e+000  0.000000e+000  1.000000e+000
    outer loop
      vertex  2.500000e+000  0.000000e+000  5.000000e+000
      vertex  5.963286e+000 -6.627392e-001  5.000000e+000
      vertex  2.022542e+000  1.469463e+000  5.000000e+000
    endloop
  endfacet
  facet normal -9.433811e-001 -3.317109e-001  0.000000e+000
    outer loop
      vertex -5.660286e+000 -1.990265e+000  5.000000e+000
      vertex -1.179030e+001  1.544342e+001  5.000000e+000
      vertex -5.660286e+000 -1.990265e+000  0.000000e+000
    endloop
  endfacet
  facet normal -9.433811e-001 -3.317109e-001  0.000000e+000
    outer loop
      vertex -5.660286e+000 -1.990265e+000  0.000000e+000
      vertex -1.179030e+001  1.544342e+001  5.000000e+000
      vertex -1.179030e+001  1.544342e+001  0.000000e+000
    endloop
  endfacet
  facet normal  9.433811e-001  3.317109e-001  0.000000e+000
    outer loop
      vertex -4.697308e-001  1.942395e+001  5.000000e+000
      vertex  5.660286e+000  1.990265e+000  5.000000e+000
      vertex -4.697308e-001  1.942395e+001  0.000000e+000
    endloop
  endfacet
  facet normal  9.433811e-001  3.317109e-001  0.000000e+000
    outer loop
      vertex -4.697308e-001  1.942395e+001  0.000000e+000
      vertex  5.660286e+000  1.990265e+000  5.000000e+000
      vertex  5.660286e+000  1.990265e+000  0.000000e+000
    endloop
  endfacet
  facet normal  9.935412e-001  1.134723e-001  0.000000e+000
    outer loop
      vertex  5.660286e+000  1.990265e+000  0.000000e+000
      vertex  5.660286e+000  1.990265e+000  5.000000e+000
      vertex  5.963286e+000 -6.627392e-001  0.000000e+000
    endloop
  endfacet
  facet normal  9.935412e-001  1.134723e-001  -0.000000e+000
    outer loop
      vertex  5.963286e+000 -6.627392e-001  0.000000e+000
      vertex  5.660286e+000  1.990265e+000  5.000000e+000
      vertex  5.963286e+000 -6.627392e-001  5.000000e+000
    endloop
  endfacet
  facet normal  9.443833e-001 -3.288465e-001  0.000000e+000
    outer loop
      vertex  5.963286e+000 -6.627392e-001  0.000000e+000
      vertex  5.963286e+000 -6.627392e-001  5.000000e+000
      vertex  5.085183e+000 -3.184480e+000  0.000000e+000
    endloop
  endfacet
  facet normal  9.443833e-001 -3.288465e-001  0.000000e+000
    outer loop
      vertex  5.085183e+000 -3.184480e+000  0.000000e+000
      vertex  5.963286e+000 -6.627392e-001  5.000000e+000
      vertex  5.085183e+000 -3.184480e+000  5.000000e+000
    endloop
  endfacet
  facet normal  7.081789e-001 -7.060330e-001  0.000000e+000
    outer loop
      vertex  5.085183e+000 -3.184480e+000  0.000000e+000
      vertex  5.085183e+000 -3.184480e+000  5.000000e+000
      vertex  3.199898e+000 -5.075496e+000  0.000000e+000
    endloop
  endfacet
  facet normal  7.081789e-001 -7.060330e-001  0.000000e+000
    outer loop
      vertex  3.199898e+000 -5.075496e+000  0.000000e+000
      vertex  5.085183e+000 -3.184480e+000  5.000000e+000
      vertex  3.199898e+000 -5.075496e+000  5.000000e+000
    endloop
  endfacet
  facet normal  3.317109e-001 -9.433812e-001  0.000000e+000
    outer loop
      vertex  3.199898e+000 -5.075496e+000  0.000000e+000
      vertex  3.199898e+000 -5.075496e+000  5.000000e+000
      vertex  6.808330e-001 -5.961247e+000  0.000000e+000
    endloop
  endfacet
  facet normal  3.317109e-001 -9.433812e-001  0.000000e+000
    outer loop
      vertex  6.808330e-001 -5.961247e+000  0.000000e+000
      vertex  3.199898e+000 -5.075496e+000  5.000000e+000
      vertex  6.808330e-001 -5.961247e+000  5.000000e+000
    endloop
  endfacet
  facet normal -1.104565e-001 -9.938810e-001  -0.000000e+000
    outer loop
      vertex  6.808330e-001 -5.961247e+000  0.000000e+000
      vertex  6.808330e-001 -5.961247e+000  5.000000e+000
      vertex -1.973079e+000 -5.666300e+000  0.000000e+000
    endloop
  endfacet
  facet normal -1.104565e-001 -9.938810e-001  0.000000e+000
    outer loop
      vertex -1.973079e+000 -5.666300e+000  0.000000e+000
      vertex  6.808330e-001 -5.961247e+000  5.000000e+000
      vertex -1.973079e+000 -5.666300e+000  5.000000e+000
    endloop
  endfacet
  facet normal -5.307466e-001 -8.475305e-001  -0.000000e+000
    outer loop
      vertex -1.973079e+000 -5.666300e+000  0.000000e+000
      vertex -1.973079e+000 -5.666300e+000  5.000000e+000
      vertex -4.236198e+000 -4.249074e+000  0.000000e+000
    endloop
  endfacet
  facet normal -5.307466e-001 -8.475305e-001  0.000000e+000
    outer loop
      vertex -4.236198e+000 -4.249074e+000  0.000000e+000
      vertex -1.973079e+000 -5.666300e+000  5.000000e+000
      vertex -4.236198e+000 -4.249074e+000  5.000000e+000
    endloop
  endfacet
  facet normal -8.459159e-001 -5.333163e-001  -0.000000e+000
    outer loop
      vertex -4.236198e+000 -4.249074e+000  0.000000e+000
      vertex -4.236198e+000 -4.249074e+000  5.000000e+000
      vertex -5.660286e+000 -1.990265e+000  0.000000e+000
    endloop
  endfacet
  facet normal -8.459159e-001 -5.333163e-001  0.000000e+000
    outer loop
      vertex -5.660286e+000 -1.990265e+000  0.000000e+000
      vertex -4.236198e+000 -4.249074e+000  5.000000e+000
      vertex -5.660286e+000 -1.990265e+000  5.000000e+000
    endloop
  endfacet
endsolid CATIA STL
