solid CATIA STL
  facet normal  0.000000e+000  0.000000e+000  1.000000e+000
    outer loop
      vertex -5.978468e+001 -9.829576e+001  5.000000e+000
      vertex -7.458788e+001 -5.459615e+001  5.000000e+000
      vertex -7.529498e+001 -5.488904e+001  5.000000e+000
    endloop
  endfacet
  facet normal  0.000000e+000  0.000000e+000  1.000000e+000
    outer loop
      vertex -5.978468e+001 -9.829576e+001  5.000000e+000
      vertex -7.429498e+001 -5.388904e+001  5.000000e+000
      vertex -7.458788e+001 -5.459615e+001  5.000000e+000
    endloop
  endfacet
  facet normal  0.000000e+000  0.000000e+000  1.000000e+000
    outer loop
      vertex  1.721851e+001 -1.110537e+002  5.000000e+000
      vertex  2.762113e+001 -1.128211e+002  5.000000e+000
      vertex  1.641392e+001 -1.076088e+002  5.000000e+000
    endloop
  endfacet
  facet normal  0.000000e+000  0.000000e+000  9.999999e-001
    outer loop
      vertex  1.641392e+001 -1.076088e+002  5.000000e+000
      vertex -5.842234e+001 -1.060222e+002  5.000000e+000
      vertex -5.912945e+001 -1.063151e+002  5.000000e+000
    endloop
  endfacet
  facet normal  0.000000e+000  0.000000e+000  1.000000e+000
    outer loop
      vertex -5.255273e+001 -1.034526e+002  5.000000e+000
      vertex -5.707398e+001 -1.021437e+002  5.000000e+000
      vertex -5.912945e+001 -1.043151e+002  5.000000e+000
    endloop
  endfacet
  facet normal  0.000000e+000  -0.000000e+000  1.000000e+000
    outer loop
      vertex -6.658357e+001 -1.041050e+002  5.000000e+000
      vertex -6.281571e+001 -1.097386e+002  5.000000e+000
      vertex -5.983656e+001 -1.046080e+002  5.000000e+000
    endloop
  endfacet
  facet normal  0.000000e+000  -0.000000e+000  1.000000e+000
    outer loop
      vertex -6.658357e+001 -1.041050e+002  5.000000e+000
      vertex -5.983656e+001 -1.046080e+002  5.000000e+000
      vertex -5.912945e+001 -1.043151e+002  5.000000e+000
    endloop
  endfacet
  facet normal  0.000000e+000  -0.000000e+000  9.999999e-001
    outer loop
      vertex -6.658357e+001 -1.041050e+002  5.000000e+000
      vertex -5.912945e+001 -1.043151e+002  5.000000e+000
      vertex -5.707398e+001 -1.021437e+002  5.000000e+000
    endloop
  endfacet
  facet normal  0.000000e+000  0.000000e+000  1.000000e+000
    outer loop
      vertex -6.658357e+001 -1.041050e+002  5.000000e+000
      vertex -5.707398e+001 -1.021437e+002  5.000000e+000
      vertex -5.978468e+001 -9.829576e+001  5.000000e+000
    endloop
  endfacet
  facet normal  0.000000e+000  0.000000e+000  1.000000e+000
    outer loop
      vertex -6.658357e+001 -1.041050e+002  5.000000e+000
      vertex -5.978468e+001 -9.829576e+001  5.000000e+000
      vertex -7.529498e+001 -5.488904e+001  5.000000e+000
    endloop
  endfacet
  facet normal  0.000000e+000  0.000000e+000  1.000000e+000
    outer loop
      vertex -6.658357e+001 -1.041050e+002  5.000000e+000
      vertex -7.529498e+001 -5.488904e+001  5.000000e+000
      vertex -7.600209e+001 -5.459615e+001  5.000000e+000
    endloop
  endfacet
  facet normal  0.000000e+000  0.000000e+000  1.000000e+000
    outer loop
      vertex -8.073109e+001 -4.722190e+001  5.000000e+000
      vertex -6.658357e+001 -1.041050e+002  5.000000e+000
      vertex -7.600209e+001 -5.459615e+001  5.000000e+000
    endloop
  endfacet
  facet normal  0.000000e+000  0.000000e+000  1.000000e+000
    outer loop
      vertex -8.073109e+001 -4.722190e+001  5.000000e+000
      vertex -7.600209e+001 -5.459615e+001  5.000000e+000
      vertex -7.629498e+001 -5.388904e+001  5.000000e+000
    endloop
  endfacet
  facet normal  0.000000e+000  -0.000000e+000  1.000000e+000
    outer loop
      vertex -8.073109e+001 -4.722190e+001  5.000000e+000
      vertex -7.629498e+001 -5.388904e+001  5.000000e+000
      vertex -7.600209e+001 -5.318193e+001  5.000000e+000
    endloop
  endfacet
  facet normal  0.000000e+000  -0.000000e+000  9.999999e-001
    outer loop
      vertex -8.073109e+001 -4.722190e+001  5.000000e+000
      vertex -7.600209e+001 -5.318193e+001  5.000000e+000
      vertex -7.529498e+001 -5.288904e+001  5.000000e+000
    endloop
  endfacet
  facet normal  0.000000e+000  -0.000000e+000  1.000000e+000
    outer loop
      vertex -8.073109e+001 -4.722190e+001  5.000000e+000
      vertex -7.529498e+001 -5.288904e+001  5.000000e+000
      vertex -7.154463e+001 -5.101236e+001  5.000000e+000
    endloop
  endfacet
  facet normal  -0.000000e+000  0.000000e+000  1.000000e+000
    outer loop
      vertex -7.154463e+001 -5.101236e+001  5.000000e+000
      vertex -7.529498e+001 -5.288904e+001  5.000000e+000
      vertex -7.458788e+001 -5.318193e+001  5.000000e+000
    endloop
  endfacet
  facet normal  -0.000000e+000  0.000000e+000  1.000000e+000
    outer loop
      vertex -7.154463e+001 -5.101236e+001  5.000000e+000
      vertex -7.458788e+001 -5.318193e+001  5.000000e+000
      vertex -7.429498e+001 -5.388904e+001  5.000000e+000
    endloop
  endfacet
  facet normal  -0.000000e+000  0.000000e+000  1.000000e+000
    outer loop
      vertex -7.154463e+001 -5.101236e+001  5.000000e+000
      vertex -7.429498e+001 -5.388904e+001  5.000000e+000
      vertex -5.978468e+001 -9.829576e+001  5.000000e+000
    endloop
  endfacet
  facet normal  0.000000e+000  -0.000000e+000  1.000000e+000
    outer loop
      vertex -6.281571e+001 -1.097386e+002  5.000000e+000
      vertex -5.632093e+001 -1.116758e+002  5.000000e+000
      vertex  1.641392e+001 -1.076088e+002  5.000000e+000
    endloop
  endfacet
  facet normal  0.000000e+000  0.000000e+000  1.000000e+000
    outer loop
      vertex -6.281571e+001 -1.097386e+002  5.000000e+000
      vertex  1.641392e+001 -1.076088e+002  5.000000e+000
      vertex -5.912945e+001 -1.063151e+002  5.000000e+000
    endloop
  endfacet
  facet normal  0.000000e+000  0.000000e+000  1.000000e+000
    outer loop
      vertex -6.281571e+001 -1.097386e+002  5.000000e+000
      vertex -5.912945e+001 -1.063151e+002  5.000000e+000
      vertex -5.983656e+001 -1.060222e+002  5.000000e+000
    endloop
  endfacet
  facet normal  0.000000e+000  0.000000e+000  9.999999e-001
    outer loop
      vertex -6.281571e+001 -1.097386e+002  5.000000e+000
      vertex -5.983656e+001 -1.060222e+002  5.000000e+000
      vertex -6.012945e+001 -1.053151e+002  5.000000e+000
    endloop
  endfacet
  facet normal  0.000000e+000  -0.000000e+000  1.000000e+000
    outer loop
      vertex -6.281571e+001 -1.097386e+002  5.000000e+000
      vertex -6.012945e+001 -1.053151e+002  5.000000e+000
      vertex -5.983656e+001 -1.046080e+002  5.000000e+000
    endloop
  endfacet
  facet normal  0.000000e+000  0.000000e+000  1.000000e+000
    outer loop
      vertex -5.812945e+001 -1.053151e+002  5.000000e+000
      vertex -5.842234e+001 -1.060222e+002  5.000000e+000
      vertex  3.461220e+001 -1.055441e+002  5.000000e+000
    endloop
  endfacet
  facet normal  0.000000e+000  0.000000e+000  1.000000e+000
    outer loop
      vertex  3.461220e+001 -1.055441e+002  5.000000e+000
      vertex -5.842234e+001 -1.060222e+002  5.000000e+000
      vertex  1.641392e+001 -1.076088e+002  5.000000e+000
    endloop
  endfacet
  facet normal  -0.000000e+000  0.000000e+000  1.000000e+000
    outer loop
      vertex  3.461220e+001 -1.055441e+002  5.000000e+000
      vertex  1.641392e+001 -1.076088e+002  5.000000e+000
      vertex  3.789401e+001 -1.104115e+002  5.000000e+000
    endloop
  endfacet
  facet normal  0.000000e+000  0.000000e+000  1.000000e+000
    outer loop
      vertex  3.789401e+001 -1.104115e+002  5.000000e+000
      vertex  1.641392e+001 -1.076088e+002  5.000000e+000
      vertex  2.762113e+001 -1.128211e+002  5.000000e+000
    endloop
  endfacet
  facet normal  0.000000e+000  0.000000e+000  1.000000e+000
    outer loop
      vertex  3.995205e+001 -9.828014e+001  5.000000e+000
      vertex -5.255273e+001 -1.034526e+002  5.000000e+000
      vertex  4.571082e+001 -1.011416e+002  5.000000e+000
    endloop
  endfacet
  facet normal  0.000000e+000  0.000000e+000  9.999999e-001
    outer loop
      vertex  4.571082e+001 -1.011416e+002  5.000000e+000
      vertex -5.255273e+001 -1.034526e+002  5.000000e+000
      vertex  3.461220e+001 -1.035441e+002  5.000000e+000
    endloop
  endfacet
  facet normal  -0.000000e+000  0.000000e+000  1.000000e+000
    outer loop
      vertex  4.571082e+001 -1.011416e+002  5.000000e+000
      vertex  3.461220e+001 -1.035441e+002  5.000000e+000
      vertex  4.642583e+001 -1.042029e+002  5.000000e+000
    endloop
  endfacet
  facet normal  0.000000e+000  0.000000e+000  1.000000e+000
    outer loop
      vertex  4.642583e+001 -1.042029e+002  5.000000e+000
      vertex  3.461220e+001 -1.035441e+002  5.000000e+000
      vertex  3.531931e+001 -1.038370e+002  5.000000e+000
    endloop
  endfacet
  facet normal  0.000000e+000  0.000000e+000  1.000000e+000
    outer loop
      vertex  4.642583e+001 -1.042029e+002  5.000000e+000
      vertex  3.531931e+001 -1.038370e+002  5.000000e+000
      vertex  3.561220e+001 -1.045441e+002  5.000000e+000
    endloop
  endfacet
  facet normal  0.000000e+000  0.000000e+000  1.000000e+000
    outer loop
      vertex  3.461220e+001 -1.035441e+002  5.000000e+000
      vertex -5.255273e+001 -1.034526e+002  5.000000e+000
      vertex  3.390509e+001 -1.038370e+002  5.000000e+000
    endloop
  endfacet
  facet normal  0.000000e+000  0.000000e+000  1.000000e+000
    outer loop
      vertex  3.390509e+001 -1.038370e+002  5.000000e+000
      vertex -5.255273e+001 -1.034526e+002  5.000000e+000
      vertex -5.912945e+001 -1.043151e+002  5.000000e+000
    endloop
  endfacet
  facet normal  -0.000000e+000  0.000000e+000  1.000000e+000
    outer loop
      vertex  3.390509e+001 -1.038370e+002  5.000000e+000
      vertex -5.912945e+001 -1.043151e+002  5.000000e+000
      vertex  3.361220e+001 -1.045441e+002  5.000000e+000
    endloop
  endfacet
  facet normal  0.000000e+000  0.000000e+000  1.000000e+000
    outer loop
      vertex  3.361220e+001 -1.045441e+002  5.000000e+000
      vertex -5.912945e+001 -1.043151e+002  5.000000e+000
      vertex -5.842234e+001 -1.046080e+002  5.000000e+000
    endloop
  endfacet
  facet normal  -0.000000e+000  0.000000e+000  1.000000e+000
    outer loop
      vertex  3.361220e+001 -1.045441e+002  5.000000e+000
      vertex -5.842234e+001 -1.046080e+002  5.000000e+000
      vertex  3.390509e+001 -1.052512e+002  5.000000e+000
    endloop
  endfacet
  facet normal  0.000000e+000  0.000000e+000  1.000000e+000
    outer loop
      vertex  3.390509e+001 -1.052512e+002  5.000000e+000
      vertex -5.842234e+001 -1.046080e+002  5.000000e+000
      vertex -5.812945e+001 -1.053151e+002  5.000000e+000
    endloop
  endfacet
  facet normal  -0.000000e+000  0.000000e+000  1.000000e+000
    outer loop
      vertex  3.390509e+001 -1.052512e+002  5.000000e+000
      vertex -5.812945e+001 -1.053151e+002  5.000000e+000
      vertex  3.461220e+001 -1.055441e+002  5.000000e+000
    endloop
  endfacet
  facet normal  -0.000000e+000  0.000000e+000  1.000000e+000
    outer loop
      vertex  4.642583e+001 -1.042029e+002  5.000000e+000
      vertex  3.561220e+001 -1.045441e+002  5.000000e+000
      vertex  3.789401e+001 -1.104115e+002  5.000000e+000
    endloop
  endfacet
  facet normal  0.000000e+000  0.000000e+000  1.000000e+000
    outer loop
      vertex  3.789401e+001 -1.104115e+002  5.000000e+000
      vertex  3.561220e+001 -1.045441e+002  5.000000e+000
      vertex  3.531931e+001 -1.052512e+002  5.000000e+000
    endloop
  endfacet
  facet normal  0.000000e+000  0.000000e+000  1.000000e+000
    outer loop
      vertex  3.789401e+001 -1.104115e+002  5.000000e+000
      vertex  3.531931e+001 -1.052512e+002  5.000000e+000
      vertex  3.461220e+001 -1.055441e+002  5.000000e+000
    endloop
  endfacet
  facet normal  0.000000e+000  -0.000000e+000 -1.000000e+000
    outer loop
      vertex -7.529498e+001 -5.488904e+001  0.000000e+000
      vertex -7.458788e+001 -5.459615e+001  0.000000e+000
      vertex -5.978468e+001 -9.829576e+001  0.000000e+000
    endloop
  endfacet
  facet normal  0.000000e+000  -0.000000e+000 -1.000000e+000
    outer loop
      vertex -7.458788e+001 -5.459615e+001  0.000000e+000
      vertex -7.429498e+001 -5.388904e+001  0.000000e+000
      vertex -5.978468e+001 -9.829576e+001  0.000000e+000
    endloop
  endfacet
  facet normal  0.000000e+000  0.000000e+000 -1.000000e+000
    outer loop
      vertex  1.641392e+001 -1.076088e+002  0.000000e+000
      vertex  2.762113e+001 -1.128211e+002  0.000000e+000
      vertex  1.721851e+001 -1.110537e+002  0.000000e+000
    endloop
  endfacet
  facet normal  0.000000e+000  -0.000000e+000 -9.999999e-001
    outer loop
      vertex -5.912945e+001 -1.063151e+002  0.000000e+000
      vertex -5.842234e+001 -1.060222e+002  0.000000e+000
      vertex  1.641392e+001 -1.076088e+002  0.000000e+000
    endloop
  endfacet
  facet normal  0.000000e+000  -0.000000e+000 -1.000000e+000
    outer loop
      vertex -5.912945e+001 -1.043151e+002  0.000000e+000
      vertex -5.707398e+001 -1.021437e+002  0.000000e+000
      vertex -5.255273e+001 -1.034526e+002  0.000000e+000
    endloop
  endfacet
  facet normal  0.000000e+000  0.000000e+000 -1.000000e+000
    outer loop
      vertex -6.658357e+001 -1.041050e+002  0.000000e+000
      vertex -7.600209e+001 -5.459615e+001  0.000000e+000
      vertex -7.529498e+001 -5.488904e+001  0.000000e+000
    endloop
  endfacet
  facet normal  0.000000e+000  0.000000e+000 -1.000000e+000
    outer loop
      vertex -6.658357e+001 -1.041050e+002  0.000000e+000
      vertex -7.529498e+001 -5.488904e+001  0.000000e+000
      vertex -5.978468e+001 -9.829576e+001  0.000000e+000
    endloop
  endfacet
  facet normal  0.000000e+000  -0.000000e+000 -1.000000e+000
    outer loop
      vertex -6.658357e+001 -1.041050e+002  0.000000e+000
      vertex -5.978468e+001 -9.829576e+001  0.000000e+000
      vertex -5.707398e+001 -1.021437e+002  0.000000e+000
    endloop
  endfacet
  facet normal  0.000000e+000  0.000000e+000 -1.000000e+000
    outer loop
      vertex -6.658357e+001 -1.041050e+002  0.000000e+000
      vertex -5.707398e+001 -1.021437e+002  0.000000e+000
      vertex -5.912945e+001 -1.043151e+002  0.000000e+000
    endloop
  endfacet
  facet normal  -0.000000e+000  0.000000e+000 -1.000000e+000
    outer loop
      vertex -6.658357e+001 -1.041050e+002  0.000000e+000
      vertex -5.912945e+001 -1.043151e+002  0.000000e+000
      vertex -5.983656e+001 -1.046080e+002  0.000000e+000
    endloop
  endfacet
  facet normal  -0.000000e+000  0.000000e+000 -1.000000e+000
    outer loop
      vertex -6.658357e+001 -1.041050e+002  0.000000e+000
      vertex -5.983656e+001 -1.046080e+002  0.000000e+000
      vertex -6.281571e+001 -1.097386e+002  0.000000e+000
    endloop
  endfacet
  facet normal  -0.000000e+000  0.000000e+000 -1.000000e+000
    outer loop
      vertex -8.073109e+001 -4.722190e+001  0.000000e+000
      vertex -7.154463e+001 -5.101236e+001  0.000000e+000
      vertex -7.529498e+001 -5.288904e+001  0.000000e+000
    endloop
  endfacet
  facet normal  -0.000000e+000  0.000000e+000 -9.999999e-001
    outer loop
      vertex -8.073109e+001 -4.722190e+001  0.000000e+000
      vertex -7.529498e+001 -5.288904e+001  0.000000e+000
      vertex -7.600209e+001 -5.318193e+001  0.000000e+000
    endloop
  endfacet
  facet normal  -0.000000e+000  0.000000e+000 -1.000000e+000
    outer loop
      vertex -8.073109e+001 -4.722190e+001  0.000000e+000
      vertex -7.600209e+001 -5.318193e+001  0.000000e+000
      vertex -7.629498e+001 -5.388904e+001  0.000000e+000
    endloop
  endfacet
  facet normal  -0.000000e+000  -0.000000e+000 -1.000000e+000
    outer loop
      vertex -8.073109e+001 -4.722190e+001  0.000000e+000
      vertex -7.629498e+001 -5.388904e+001  0.000000e+000
      vertex -7.600209e+001 -5.459615e+001  0.000000e+000
    endloop
  endfacet
  facet normal  -0.000000e+000  -0.000000e+000 -1.000000e+000
    outer loop
      vertex -8.073109e+001 -4.722190e+001  0.000000e+000
      vertex -7.600209e+001 -5.459615e+001  0.000000e+000
      vertex -6.658357e+001 -1.041050e+002  0.000000e+000
    endloop
  endfacet
  facet normal  0.000000e+000  0.000000e+000 -1.000000e+000
    outer loop
      vertex -7.154463e+001 -5.101236e+001  0.000000e+000
      vertex -5.978468e+001 -9.829576e+001  0.000000e+000
      vertex -7.429498e+001 -5.388904e+001  0.000000e+000
    endloop
  endfacet
  facet normal  0.000000e+000  0.000000e+000 -1.000000e+000
    outer loop
      vertex -7.154463e+001 -5.101236e+001  0.000000e+000
      vertex -7.429498e+001 -5.388904e+001  0.000000e+000
      vertex -7.458788e+001 -5.318193e+001  0.000000e+000
    endloop
  endfacet
  facet normal  0.000000e+000  0.000000e+000 -1.000000e+000
    outer loop
      vertex -7.154463e+001 -5.101236e+001  0.000000e+000
      vertex -7.458788e+001 -5.318193e+001  0.000000e+000
      vertex -7.529498e+001 -5.288904e+001  0.000000e+000
    endloop
  endfacet
  facet normal  0.000000e+000  0.000000e+000 -1.000000e+000
    outer loop
      vertex -6.281571e+001 -1.097386e+002  0.000000e+000
      vertex -5.983656e+001 -1.046080e+002  0.000000e+000
      vertex -6.012945e+001 -1.053151e+002  0.000000e+000
    endloop
  endfacet
  facet normal  0.000000e+000  -0.000000e+000 -9.999999e-001
    outer loop
      vertex -6.281571e+001 -1.097386e+002  0.000000e+000
      vertex -6.012945e+001 -1.053151e+002  0.000000e+000
      vertex -5.983656e+001 -1.060222e+002  0.000000e+000
    endloop
  endfacet
  facet normal  0.000000e+000  -0.000000e+000 -1.000000e+000
    outer loop
      vertex -6.281571e+001 -1.097386e+002  0.000000e+000
      vertex -5.983656e+001 -1.060222e+002  0.000000e+000
      vertex -5.912945e+001 -1.063151e+002  0.000000e+000
    endloop
  endfacet
  facet normal  0.000000e+000  -0.000000e+000 -1.000000e+000
    outer loop
      vertex -6.281571e+001 -1.097386e+002  0.000000e+000
      vertex -5.912945e+001 -1.063151e+002  0.000000e+000
      vertex  1.641392e+001 -1.076088e+002  0.000000e+000
    endloop
  endfacet
  facet normal  0.000000e+000  0.000000e+000 -1.000000e+000
    outer loop
      vertex -6.281571e+001 -1.097386e+002  0.000000e+000
      vertex  1.641392e+001 -1.076088e+002  0.000000e+000
      vertex -5.632093e+001 -1.116758e+002  0.000000e+000
    endloop
  endfacet
  facet normal  -0.000000e+000  0.000000e+000 -1.000000e+000
    outer loop
      vertex -5.812945e+001 -1.053151e+002  0.000000e+000
      vertex  3.461220e+001 -1.055441e+002  0.000000e+000
      vertex -5.842234e+001 -1.060222e+002  0.000000e+000
    endloop
  endfacet
  facet normal  0.000000e+000  0.000000e+000 -1.000000e+000
    outer loop
      vertex -5.842234e+001 -1.060222e+002  0.000000e+000
      vertex  3.461220e+001 -1.055441e+002  0.000000e+000
      vertex  1.641392e+001 -1.076088e+002  0.000000e+000
    endloop
  endfacet
  facet normal  0.000000e+000  0.000000e+000 -1.000000e+000
    outer loop
      vertex  3.461220e+001 -1.055441e+002  0.000000e+000
      vertex  3.789401e+001 -1.104115e+002  0.000000e+000
      vertex  1.641392e+001 -1.076088e+002  0.000000e+000
    endloop
  endfacet
  facet normal  0.000000e+000  0.000000e+000 -1.000000e+000
    outer loop
      vertex  1.641392e+001 -1.076088e+002  0.000000e+000
      vertex  3.789401e+001 -1.104115e+002  0.000000e+000
      vertex  2.762113e+001 -1.128211e+002  0.000000e+000
    endloop
  endfacet
  facet normal  0.000000e+000  0.000000e+000 -1.000000e+000
    outer loop
      vertex  3.561220e+001 -1.045441e+002  0.000000e+000
      vertex  3.531931e+001 -1.038370e+002  0.000000e+000
      vertex  4.642583e+001 -1.042029e+002  0.000000e+000
    endloop
  endfacet
  facet normal  0.000000e+000  0.000000e+000 -1.000000e+000
    outer loop
      vertex  4.642583e+001 -1.042029e+002  0.000000e+000
      vertex  3.531931e+001 -1.038370e+002  0.000000e+000
      vertex  3.461220e+001 -1.035441e+002  0.000000e+000
    endloop
  endfacet
  facet normal  0.000000e+000  0.000000e+000 -1.000000e+000
    outer loop
      vertex  4.642583e+001 -1.042029e+002  0.000000e+000
      vertex  3.461220e+001 -1.035441e+002  0.000000e+000
      vertex  4.571082e+001 -1.011416e+002  0.000000e+000
    endloop
  endfacet
  facet normal  0.000000e+000  0.000000e+000 -9.999999e-001
    outer loop
      vertex  4.571082e+001 -1.011416e+002  0.000000e+000
      vertex  3.461220e+001 -1.035441e+002  0.000000e+000
      vertex -5.255273e+001 -1.034526e+002  0.000000e+000
    endloop
  endfacet
  facet normal  0.000000e+000  0.000000e+000 -1.000000e+000
    outer loop
      vertex  4.571082e+001 -1.011416e+002  0.000000e+000
      vertex -5.255273e+001 -1.034526e+002  0.000000e+000
      vertex  3.995205e+001 -9.828014e+001  0.000000e+000
    endloop
  endfacet
  facet normal  0.000000e+000  0.000000e+000 -1.000000e+000
    outer loop
      vertex  3.461220e+001 -1.055441e+002  0.000000e+000
      vertex -5.812945e+001 -1.053151e+002  0.000000e+000
      vertex  3.390509e+001 -1.052512e+002  0.000000e+000
    endloop
  endfacet
  facet normal  -0.000000e+000  0.000000e+000 -1.000000e+000
    outer loop
      vertex  3.390509e+001 -1.052512e+002  0.000000e+000
      vertex -5.812945e+001 -1.053151e+002  0.000000e+000
      vertex -5.842234e+001 -1.046080e+002  0.000000e+000
    endloop
  endfacet
  facet normal  0.000000e+000  0.000000e+000 -1.000000e+000
    outer loop
      vertex  3.390509e+001 -1.052512e+002  0.000000e+000
      vertex -5.842234e+001 -1.046080e+002  0.000000e+000
      vertex  3.361220e+001 -1.045441e+002  0.000000e+000
    endloop
  endfacet
  facet normal  -0.000000e+000  0.000000e+000 -1.000000e+000
    outer loop
      vertex  3.361220e+001 -1.045441e+002  0.000000e+000
      vertex -5.842234e+001 -1.046080e+002  0.000000e+000
      vertex -5.912945e+001 -1.043151e+002  0.000000e+000
    endloop
  endfacet
  facet normal  0.000000e+000  0.000000e+000 -1.000000e+000
    outer loop
      vertex  3.361220e+001 -1.045441e+002  0.000000e+000
      vertex -5.912945e+001 -1.043151e+002  0.000000e+000
      vertex  3.390509e+001 -1.038370e+002  0.000000e+000
    endloop
  endfacet
  facet normal  -0.000000e+000  0.000000e+000 -1.000000e+000
    outer loop
      vertex  3.390509e+001 -1.038370e+002  0.000000e+000
      vertex -5.912945e+001 -1.043151e+002  0.000000e+000
      vertex -5.255273e+001 -1.034526e+002  0.000000e+000
    endloop
  endfacet
  facet normal  0.000000e+000  0.000000e+000 -1.000000e+000
    outer loop
      vertex  3.390509e+001 -1.038370e+002  0.000000e+000
      vertex -5.255273e+001 -1.034526e+002  0.000000e+000
      vertex  3.461220e+001 -1.035441e+002  0.000000e+000
    endloop
  endfacet
  facet normal  0.000000e+000  -0.000000e+000 -1.000000e+000
    outer loop
      vertex  3.461220e+001 -1.055441e+002  0.000000e+000
      vertex  3.531931e+001 -1.052512e+002  0.000000e+000
      vertex  3.789401e+001 -1.104115e+002  0.000000e+000
    endloop
  endfacet
  facet normal  0.000000e+000  0.000000e+000 -1.000000e+000
    outer loop
      vertex  3.789401e+001 -1.104115e+002  0.000000e+000
      vertex  3.531931e+001 -1.052512e+002  0.000000e+000
      vertex  3.561220e+001 -1.045441e+002  0.000000e+000
    endloop
  endfacet
  facet normal  0.000000e+000  0.000000e+000 -1.000000e+000
    outer loop
      vertex  3.789401e+001 -1.104115e+002  0.000000e+000
      vertex  3.561220e+001 -1.045441e+002  0.000000e+000
      vertex  4.642583e+001 -1.042029e+002  0.000000e+000
    endloop
  endfacet
  facet normal -3.826822e-001  9.238800e-001  0.000000e+000
    outer loop
      vertex  3.461220e+001 -1.055441e+002  0.000000e+000
      vertex  3.531931e+001 -1.052512e+002  5.000000e+000
      vertex  3.531931e+001 -1.052512e+002  0.000000e+000
    endloop
  endfacet
  facet normal -9.238800e-001  3.826822e-001  0.000000e+000
    outer loop
      vertex  3.531931e+001 -1.052512e+002  0.000000e+000
      vertex  3.531931e+001 -1.052512e+002  5.000000e+000
      vertex  3.561220e+001 -1.045441e+002  5.000000e+000
    endloop
  endfacet
  facet normal -9.238800e-001  3.826822e-001  0.000000e+000
    outer loop
      vertex  3.531931e+001 -1.052512e+002  0.000000e+000
      vertex  3.561220e+001 -1.045441e+002  5.000000e+000
      vertex  3.561220e+001 -1.045441e+002  0.000000e+000
    endloop
  endfacet
  facet normal -3.826822e-001  9.238800e-001  0.000000e+000
    outer loop
      vertex  3.531931e+001 -1.052512e+002  5.000000e+000
      vertex  3.461220e+001 -1.055441e+002  0.000000e+000
      vertex  3.461220e+001 -1.055441e+002  5.000000e+000
    endloop
  endfacet
  facet normal  3.826822e-001  9.238800e-001  0.000000e+000
    outer loop
      vertex  3.461220e+001 -1.055441e+002  5.000000e+000
      vertex  3.461220e+001 -1.055441e+002  0.000000e+000
      vertex  3.390509e+001 -1.052512e+002  0.000000e+000
    endloop
  endfacet
  facet normal  3.826822e-001  9.238800e-001  -0.000000e+000
    outer loop
      vertex  3.461220e+001 -1.055441e+002  5.000000e+000
      vertex  3.390509e+001 -1.052512e+002  0.000000e+000
      vertex  3.390509e+001 -1.052512e+002  5.000000e+000
    endloop
  endfacet
  facet normal  9.238800e-001  3.826822e-001  0.000000e+000
    outer loop
      vertex  3.390509e+001 -1.052512e+002  5.000000e+000
      vertex  3.390509e+001 -1.052512e+002  0.000000e+000
      vertex  3.361220e+001 -1.045441e+002  0.000000e+000
    endloop
  endfacet
  facet normal  9.238800e-001  3.826822e-001  -0.000000e+000
    outer loop
      vertex  3.390509e+001 -1.052512e+002  5.000000e+000
      vertex  3.361220e+001 -1.045441e+002  0.000000e+000
      vertex  3.361220e+001 -1.045441e+002  5.000000e+000
    endloop
  endfacet
  facet normal  3.826822e-001 -9.238800e-001  0.000000e+000
    outer loop
      vertex  3.461220e+001 -1.035441e+002  0.000000e+000
      vertex  3.390509e+001 -1.038370e+002  5.000000e+000
      vertex  3.390509e+001 -1.038370e+002  0.000000e+000
    endloop
  endfacet
  facet normal  9.238800e-001 -3.826822e-001  0.000000e+000
    outer loop
      vertex  3.390509e+001 -1.038370e+002  0.000000e+000
      vertex  3.390509e+001 -1.038370e+002  5.000000e+000
      vertex  3.361220e+001 -1.045441e+002  5.000000e+000
    endloop
  endfacet
  facet normal  9.238800e-001 -3.826822e-001  0.000000e+000
    outer loop
      vertex  3.390509e+001 -1.038370e+002  0.000000e+000
      vertex  3.361220e+001 -1.045441e+002  5.000000e+000
      vertex  3.361220e+001 -1.045441e+002  0.000000e+000
    endloop
  endfacet
  facet normal  3.826822e-001 -9.238800e-001  0.000000e+000
    outer loop
      vertex  3.390509e+001 -1.038370e+002  5.000000e+000
      vertex  3.461220e+001 -1.035441e+002  0.000000e+000
      vertex  3.461220e+001 -1.035441e+002  5.000000e+000
    endloop
  endfacet
  facet normal -3.826822e-001 -9.238800e-001  -0.000000e+000
    outer loop
      vertex  3.461220e+001 -1.035441e+002  5.000000e+000
      vertex  3.461220e+001 -1.035441e+002  0.000000e+000
      vertex  3.531931e+001 -1.038370e+002  0.000000e+000
    endloop
  endfacet
  facet normal -3.826822e-001 -9.238800e-001  0.000000e+000
    outer loop
      vertex  3.461220e+001 -1.035441e+002  5.000000e+000
      vertex  3.531931e+001 -1.038370e+002  0.000000e+000
      vertex  3.531931e+001 -1.038370e+002  5.000000e+000
    endloop
  endfacet
  facet normal -9.238800e-001 -3.826822e-001  -0.000000e+000
    outer loop
      vertex  3.531931e+001 -1.038370e+002  5.000000e+000
      vertex  3.531931e+001 -1.038370e+002  0.000000e+000
      vertex  3.561220e+001 -1.045441e+002  0.000000e+000
    endloop
  endfacet
  facet normal -9.238800e-001 -3.826822e-001  0.000000e+000
    outer loop
      vertex  3.531931e+001 -1.038370e+002  5.000000e+000
      vertex  3.561220e+001 -1.045441e+002  0.000000e+000
      vertex  3.561220e+001 -1.045441e+002  5.000000e+000
    endloop
  endfacet
  facet normal  3.826822e-001 -9.238800e-001  0.000000e+000
    outer loop
      vertex -5.912945e+001 -1.043151e+002  0.000000e+000
      vertex -5.983656e+001 -1.046080e+002  5.000000e+000
      vertex -5.983656e+001 -1.046080e+002  0.000000e+000
    endloop
  endfacet
  facet normal  9.238800e-001 -3.826822e-001  0.000000e+000
    outer loop
      vertex -5.983656e+001 -1.046080e+002  0.000000e+000
      vertex -5.983656e+001 -1.046080e+002  5.000000e+000
      vertex -6.012945e+001 -1.053151e+002  5.000000e+000
    endloop
  endfacet
  facet normal  9.238800e-001 -3.826822e-001  0.000000e+000
    outer loop
      vertex -5.983656e+001 -1.046080e+002  0.000000e+000
      vertex -6.012945e+001 -1.053151e+002  5.000000e+000
      vertex -6.012945e+001 -1.053151e+002  0.000000e+000
    endloop
  endfacet
  facet normal  3.826822e-001 -9.238800e-001  0.000000e+000
    outer loop
      vertex -5.983656e+001 -1.046080e+002  5.000000e+000
      vertex -5.912945e+001 -1.043151e+002  0.000000e+000
      vertex -5.912945e+001 -1.043151e+002  5.000000e+000
    endloop
  endfacet
  facet normal -3.826822e-001 -9.238800e-001  -0.000000e+000
    outer loop
      vertex -5.912945e+001 -1.043151e+002  5.000000e+000
      vertex -5.912945e+001 -1.043151e+002  0.000000e+000
      vertex -5.842234e+001 -1.046080e+002  0.000000e+000
    endloop
  endfacet
  facet normal -3.826822e-001 -9.238800e-001  0.000000e+000
    outer loop
      vertex -5.912945e+001 -1.043151e+002  5.000000e+000
      vertex -5.842234e+001 -1.046080e+002  0.000000e+000
      vertex -5.842234e+001 -1.046080e+002  5.000000e+000
    endloop
  endfacet
  facet normal -9.238800e-001 -3.826822e-001  -0.000000e+000
    outer loop
      vertex -5.842234e+001 -1.046080e+002  5.000000e+000
      vertex -5.842234e+001 -1.046080e+002  0.000000e+000
      vertex -5.812945e+001 -1.053151e+002  0.000000e+000
    endloop
  endfacet
  facet normal -9.238800e-001 -3.826822e-001  0.000000e+000
    outer loop
      vertex -5.842234e+001 -1.046080e+002  5.000000e+000
      vertex -5.812945e+001 -1.053151e+002  0.000000e+000
      vertex -5.812945e+001 -1.053151e+002  5.000000e+000
    endloop
  endfacet
  facet normal -3.826822e-001  9.238800e-001  0.000000e+000
    outer loop
      vertex -5.912945e+001 -1.063151e+002  0.000000e+000
      vertex -5.842234e+001 -1.060222e+002  5.000000e+000
      vertex -5.842234e+001 -1.060222e+002  0.000000e+000
    endloop
  endfacet
  facet normal -9.238800e-001  3.826822e-001  0.000000e+000
    outer loop
      vertex -5.842234e+001 -1.060222e+002  0.000000e+000
      vertex -5.842234e+001 -1.060222e+002  5.000000e+000
      vertex -5.812945e+001 -1.053151e+002  5.000000e+000
    endloop
  endfacet
  facet normal -9.238800e-001  3.826822e-001  0.000000e+000
    outer loop
      vertex -5.842234e+001 -1.060222e+002  0.000000e+000
      vertex -5.812945e+001 -1.053151e+002  5.000000e+000
      vertex -5.812945e+001 -1.053151e+002  0.000000e+000
    endloop
  endfacet
  facet normal -3.826822e-001  9.238800e-001  0.000000e+000
    outer loop
      vertex -5.842234e+001 -1.060222e+002  5.000000e+000
      vertex -5.912945e+001 -1.063151e+002  0.000000e+000
      vertex -5.912945e+001 -1.063151e+002  5.000000e+000
    endloop
  endfacet
  facet normal  3.826822e-001  9.238800e-001  0.000000e+000
    outer loop
      vertex -5.912945e+001 -1.063151e+002  5.000000e+000
      vertex -5.912945e+001 -1.063151e+002  0.000000e+000
      vertex -5.983656e+001 -1.060222e+002  0.000000e+000
    endloop
  endfacet
  facet normal  3.826822e-001  9.238800e-001  -0.000000e+000
    outer loop
      vertex -5.912945e+001 -1.063151e+002  5.000000e+000
      vertex -5.983656e+001 -1.060222e+002  0.000000e+000
      vertex -5.983656e+001 -1.060222e+002  5.000000e+000
    endloop
  endfacet
  facet normal  9.238800e-001  3.826822e-001  0.000000e+000
    outer loop
      vertex -5.983656e+001 -1.060222e+002  5.000000e+000
      vertex -5.983656e+001 -1.060222e+002  0.000000e+000
      vertex -6.012945e+001 -1.053151e+002  0.000000e+000
    endloop
  endfacet
  facet normal  9.238800e-001  3.826822e-001  -0.000000e+000
    outer loop
      vertex -5.983656e+001 -1.060222e+002  5.000000e+000
      vertex -6.012945e+001 -1.053151e+002  0.000000e+000
      vertex -6.012945e+001 -1.053151e+002  5.000000e+000
    endloop
  endfacet
  facet normal  3.826822e-001 -9.238800e-001  0.000000e+000
    outer loop
      vertex -7.529498e+001 -5.288904e+001  0.000000e+000
      vertex -7.600209e+001 -5.318193e+001  5.000000e+000
      vertex -7.600209e+001 -5.318193e+001  0.000000e+000
    endloop
  endfacet
  facet normal  9.238800e-001 -3.826822e-001  0.000000e+000
    outer loop
      vertex -7.600209e+001 -5.318193e+001  0.000000e+000
      vertex -7.600209e+001 -5.318193e+001  5.000000e+000
      vertex -7.629498e+001 -5.388904e+001  5.000000e+000
    endloop
  endfacet
  facet normal  9.238800e-001 -3.826822e-001  0.000000e+000
    outer loop
      vertex -7.600209e+001 -5.318193e+001  0.000000e+000
      vertex -7.629498e+001 -5.388904e+001  5.000000e+000
      vertex -7.629498e+001 -5.388904e+001  0.000000e+000
    endloop
  endfacet
  facet normal  3.826822e-001 -9.238800e-001  0.000000e+000
    outer loop
      vertex -7.600209e+001 -5.318193e+001  5.000000e+000
      vertex -7.529498e+001 -5.288904e+001  0.000000e+000
      vertex -7.529498e+001 -5.288904e+001  5.000000e+000
    endloop
  endfacet
  facet normal -3.826822e-001 -9.238800e-001  -0.000000e+000
    outer loop
      vertex -7.529498e+001 -5.288904e+001  5.000000e+000
      vertex -7.529498e+001 -5.288904e+001  0.000000e+000
      vertex -7.458788e+001 -5.318193e+001  0.000000e+000
    endloop
  endfacet
  facet normal -3.826822e-001 -9.238800e-001  0.000000e+000
    outer loop
      vertex -7.529498e+001 -5.288904e+001  5.000000e+000
      vertex -7.458788e+001 -5.318193e+001  0.000000e+000
      vertex -7.458788e+001 -5.318193e+001  5.000000e+000
    endloop
  endfacet
  facet normal -9.238800e-001 -3.826822e-001  -0.000000e+000
    outer loop
      vertex -7.458788e+001 -5.318193e+001  5.000000e+000
      vertex -7.458788e+001 -5.318193e+001  0.000000e+000
      vertex -7.429498e+001 -5.388904e+001  0.000000e+000
    endloop
  endfacet
  facet normal -9.238800e-001 -3.826822e-001  0.000000e+000
    outer loop
      vertex -7.458788e+001 -5.318193e+001  5.000000e+000
      vertex -7.429498e+001 -5.388904e+001  0.000000e+000
      vertex -7.429498e+001 -5.388904e+001  5.000000e+000
    endloop
  endfacet
  facet normal -3.826822e-001  9.238800e-001  0.000000e+000
    outer loop
      vertex -7.529498e+001 -5.488904e+001  0.000000e+000
      vertex -7.458788e+001 -5.459615e+001  5.000000e+000
      vertex -7.458788e+001 -5.459615e+001  0.000000e+000
    endloop
  endfacet
  facet normal -9.238800e-001  3.826822e-001  0.000000e+000
    outer loop
      vertex -7.458788e+001 -5.459615e+001  0.000000e+000
      vertex -7.458788e+001 -5.459615e+001  5.000000e+000
      vertex -7.429498e+001 -5.388904e+001  5.000000e+000
    endloop
  endfacet
  facet normal -9.238800e-001  3.826822e-001  0.000000e+000
    outer loop
      vertex -7.458788e+001 -5.459615e+001  0.000000e+000
      vertex -7.429498e+001 -5.388904e+001  5.000000e+000
      vertex -7.429498e+001 -5.388904e+001  0.000000e+000
    endloop
  endfacet
  facet normal -3.826822e-001  9.238800e-001  0.000000e+000
    outer loop
      vertex -7.458788e+001 -5.459615e+001  5.000000e+000
      vertex -7.529498e+001 -5.488904e+001  0.000000e+000
      vertex -7.529498e+001 -5.488904e+001  5.000000e+000
    endloop
  endfacet
  facet normal  3.826822e-001  9.238800e-001  0.000000e+000
    outer loop
      vertex -7.529498e+001 -5.488904e+001  5.000000e+000
      vertex -7.529498e+001 -5.488904e+001  0.000000e+000
      vertex -7.600209e+001 -5.459615e+001  0.000000e+000
    endloop
  endfacet
  facet normal  3.826822e-001  9.238800e-001  -0.000000e+000
    outer loop
      vertex -7.529498e+001 -5.488904e+001  5.000000e+000
      vertex -7.600209e+001 -5.459615e+001  0.000000e+000
      vertex -7.600209e+001 -5.459615e+001  5.000000e+000
    endloop
  endfacet
  facet normal  9.238800e-001  3.826822e-001  0.000000e+000
    outer loop
      vertex -7.600209e+001 -5.459615e+001  5.000000e+000
      vertex -7.600209e+001 -5.459615e+001  0.000000e+000
      vertex -7.629498e+001 -5.388904e+001  0.000000e+000
    endloop
  endfacet
  facet normal  9.238800e-001  3.826822e-001  -0.000000e+000
    outer loop
      vertex -7.600209e+001 -5.459615e+001  5.000000e+000
      vertex -7.629498e+001 -5.388904e+001  0.000000e+000
      vertex -7.629498e+001 -5.388904e+001  5.000000e+000
    endloop
  endfacet
  facet normal -9.704358e-001 -2.413591e-001  0.000000e+000
    outer loop
      vertex -6.658357e+001 -1.041050e+002  5.000000e+000
      vertex -8.073109e+001 -4.722190e+001  5.000000e+000
      vertex -6.658357e+001 -1.041050e+002  0.000000e+000
    endloop
  endfacet
  facet normal -9.704358e-001 -2.413591e-001  0.000000e+000
    outer loop
      vertex -6.658357e+001 -1.041050e+002  0.000000e+000
      vertex -8.073109e+001 -4.722190e+001  5.000000e+000
      vertex -8.073109e+001 -4.722190e+001  0.000000e+000
    endloop
  endfacet
  facet normal  3.814212e-001  9.244014e-001  0.000000e+000
    outer loop
      vertex -8.073109e+001 -4.722190e+001  5.000000e+000
      vertex -7.154463e+001 -5.101236e+001  5.000000e+000
      vertex -8.073109e+001 -4.722190e+001  0.000000e+000
    endloop
  endfacet
  facet normal  3.814212e-001  9.244014e-001  0.000000e+000
    outer loop
      vertex -8.073109e+001 -4.722190e+001  0.000000e+000
      vertex -7.154463e+001 -5.101236e+001  5.000000e+000
      vertex -7.154463e+001 -5.101236e+001  0.000000e+000
    endloop
  endfacet
  facet normal  9.704359e-001  2.413590e-001  -0.000000e+000
    outer loop
      vertex -5.978468e+001 -9.829576e+001  5.000000e+000
      vertex -5.978468e+001 -9.829576e+001  0.000000e+000
      vertex -7.154463e+001 -5.101236e+001  5.000000e+000
    endloop
  endfacet
  facet normal  9.704359e-001  2.413590e-001  0.000000e+000
    outer loop
      vertex -7.154463e+001 -5.101236e+001  5.000000e+000
      vertex -5.978468e+001 -9.829576e+001  0.000000e+000
      vertex -7.154463e+001 -5.101236e+001  0.000000e+000
    endloop
  endfacet
  facet normal  2.780767e-001  9.605589e-001  0.000000e+000
    outer loop
      vertex -5.255273e+001 -1.034526e+002  0.000000e+000
      vertex -5.707398e+001 -1.021437e+002  0.000000e+000
      vertex -5.255273e+001 -1.034526e+002  5.000000e+000
    endloop
  endfacet
  facet normal  2.780767e-001  9.605589e-001  0.000000e+000
    outer loop
      vertex -5.255273e+001 -1.034526e+002  5.000000e+000
      vertex -5.707398e+001 -1.021437e+002  0.000000e+000
      vertex -5.707398e+001 -1.021437e+002  5.000000e+000
    endloop
  endfacet
  facet normal  8.175194e-001  5.759010e-001  0.000000e+000
    outer loop
      vertex -5.707398e+001 -1.021437e+002  0.000000e+000
      vertex -5.978468e+001 -9.829576e+001  0.000000e+000
      vertex -5.707398e+001 -1.021437e+002  5.000000e+000
    endloop
  endfacet
  facet normal  8.175194e-001  5.759010e-001  0.000000e+000
    outer loop
      vertex -5.707398e+001 -1.021437e+002  5.000000e+000
      vertex -5.978468e+001 -9.829576e+001  0.000000e+000
      vertex -5.978468e+001 -9.829576e+001  5.000000e+000
    endloop
  endfacet
  facet normal -5.582859e-002  9.984404e-001  0.000000e+000
    outer loop
      vertex  3.995205e+001 -9.828014e+001  5.000000e+000
      vertex  3.995205e+001 -9.828014e+001  0.000000e+000
      vertex -5.255273e+001 -1.034526e+002  5.000000e+000
    endloop
  endfacet
  facet normal -5.582859e-002  9.984404e-001  0.000000e+000
    outer loop
      vertex -5.255273e+001 -1.034526e+002  5.000000e+000
      vertex  3.995205e+001 -9.828014e+001  0.000000e+000
      vertex -5.255273e+001 -1.034526e+002  0.000000e+000
    endloop
  endfacet
  facet normal  4.449801e-001  8.955405e-001  -0.000000e+000
    outer loop
      vertex  4.571082e+001 -1.011416e+002  5.000000e+000
      vertex  4.571082e+001 -1.011416e+002  0.000000e+000
      vertex  3.995205e+001 -9.828014e+001  5.000000e+000
    endloop
  endfacet
  facet normal  4.449801e-001  8.955405e-001  0.000000e+000
    outer loop
      vertex  3.995205e+001 -9.828014e+001  5.000000e+000
      vertex  4.571082e+001 -1.011416e+002  0.000000e+000
      vertex  3.995205e+001 -9.828014e+001  0.000000e+000
    endloop
  endfacet
  facet normal  9.737923e-001  2.274394e-001  0.000000e+000
    outer loop
      vertex  4.642583e+001 -1.042029e+002  0.000000e+000
      vertex  4.571082e+001 -1.011416e+002  0.000000e+000
      vertex  4.642583e+001 -1.042029e+002  5.000000e+000
    endloop
  endfacet
  facet normal  9.737923e-001  2.274394e-001  0.000000e+000
    outer loop
      vertex  4.642583e+001 -1.042029e+002  5.000000e+000
      vertex  4.571082e+001 -1.011416e+002  0.000000e+000
      vertex  4.571082e+001 -1.011416e+002  5.000000e+000
    endloop
  endfacet
  facet normal  5.883947e-001 -8.085738e-001  0.000000e+000
    outer loop
      vertex  4.642583e+001 -1.042029e+002  0.000000e+000
      vertex  4.642583e+001 -1.042029e+002  5.000000e+000
      vertex  3.789401e+001 -1.104115e+002  0.000000e+000
    endloop
  endfacet
  facet normal  5.883947e-001 -8.085738e-001  0.000000e+000
    outer loop
      vertex  3.789401e+001 -1.104115e+002  0.000000e+000
      vertex  4.642583e+001 -1.042029e+002  5.000000e+000
      vertex  3.789401e+001 -1.104115e+002  5.000000e+000
    endloop
  endfacet
  facet normal  2.283579e-001 -9.735773e-001  0.000000e+000
    outer loop
      vertex  3.789401e+001 -1.104115e+002  0.000000e+000
      vertex  3.789401e+001 -1.104115e+002  5.000000e+000
      vertex  2.762113e+001 -1.128211e+002  0.000000e+000
    endloop
  endfacet
  facet normal  2.283579e-001 -9.735773e-001  0.000000e+000
    outer loop
      vertex  2.762113e+001 -1.128211e+002  0.000000e+000
      vertex  3.789401e+001 -1.104115e+002  5.000000e+000
      vertex  2.762113e+001 -1.128211e+002  5.000000e+000
    endloop
  endfacet
  facet normal -1.674981e-001 -9.858724e-001  -0.000000e+000
    outer loop
      vertex  2.762113e+001 -1.128211e+002  0.000000e+000
      vertex  2.762113e+001 -1.128211e+002  5.000000e+000
      vertex  1.721851e+001 -1.110537e+002  0.000000e+000
    endloop
  endfacet
  facet normal -1.674981e-001 -9.858724e-001  0.000000e+000
    outer loop
      vertex  1.721851e+001 -1.110537e+002  0.000000e+000
      vertex  2.762113e+001 -1.128211e+002  5.000000e+000
      vertex  1.721851e+001 -1.110537e+002  5.000000e+000
    endloop
  endfacet
  facet normal -9.737921e-001 -2.274402e-001  0.000000e+000
    outer loop
      vertex  1.641392e+001 -1.076088e+002  0.000000e+000
      vertex  1.721851e+001 -1.110537e+002  0.000000e+000
      vertex  1.641392e+001 -1.076088e+002  5.000000e+000
    endloop
  endfacet
  facet normal -9.737921e-001 -2.274402e-001  0.000000e+000
    outer loop
      vertex  1.641392e+001 -1.076088e+002  5.000000e+000
      vertex  1.721851e+001 -1.110537e+002  0.000000e+000
      vertex  1.721851e+001 -1.110537e+002  5.000000e+000
    endloop
  endfacet
  facet normal  5.582855e-002 -9.984403e-001  0.000000e+000
    outer loop
      vertex -5.632093e+001 -1.116758e+002  5.000000e+000
      vertex -5.632093e+001 -1.116758e+002  0.000000e+000
      vertex  1.641392e+001 -1.076088e+002  5.000000e+000
    endloop
  endfacet
  facet normal  5.582855e-002 -9.984403e-001  0.000000e+000
    outer loop
      vertex  1.641392e+001 -1.076088e+002  5.000000e+000
      vertex -5.632093e+001 -1.116758e+002  0.000000e+000
      vertex  1.641392e+001 -1.076088e+002  0.000000e+000
    endloop
  endfacet
  facet normal -2.858219e-001 -9.582826e-001  -0.000000e+000
    outer loop
      vertex -5.632093e+001 -1.116758e+002  0.000000e+000
      vertex -5.632093e+001 -1.116758e+002  5.000000e+000
      vertex -6.281571e+001 -1.097386e+002  0.000000e+000
    endloop
  endfacet
  facet normal -2.858219e-001 -9.582826e-001  0.000000e+000
    outer loop
      vertex -6.281571e+001 -1.097386e+002  0.000000e+000
      vertex -5.632093e+001 -1.116758e+002  5.000000e+000
      vertex -6.281571e+001 -1.097386e+002  5.000000e+000
    endloop
  endfacet
  facet normal -8.312253e-001 -5.559357e-001  -0.000000e+000
    outer loop
      vertex -6.281571e+001 -1.097386e+002  0.000000e+000
      vertex -6.281571e+001 -1.097386e+002  5.000000e+000
      vertex -6.658357e+001 -1.041050e+002  0.000000e+000
    endloop
  endfacet
  facet normal -8.312253e-001 -5.559357e-001  0.000000e+000
    outer loop
      vertex -6.658357e+001 -1.041050e+002  0.000000e+000
      vertex -6.281571e+001 -1.097386e+002  5.000000e+000
      vertex -6.658357e+001 -1.041050e+002  5.000000e+000
    endloop
  endfacet
endsolid CATIA STL
