solid CATIA STL
  facet normal  0.000000e+000  0.000000e+000  1.000000e+000
    outer loop
      vertex -1.272307e+001 -4.019169e+001  5.000000e+000
      vertex -1.134155e+001 -1.640934e+001  5.000000e+000
      vertex -1.204865e+001 -1.670223e+001  5.000000e+000
    endloop
  endfacet
  facet normal  0.000000e+000  0.000000e+000  1.000000e+000
    outer loop
      vertex -1.304865e+001 -1.570223e+001  5.000000e+000
      vertex -1.275576e+001 -1.499512e+001  5.000000e+000
      vertex -1.530558e+001 -7.885733e+000  5.000000e+000
    endloop
  endfacet
  facet normal  0.000000e+000  0.000000e+000  1.000000e+000
    outer loop
      vertex -4.678231e+001 -9.521899e+001  5.000000e+000
      vertex -3.175814e+001 -7.745824e+001  5.000000e+000
      vertex -4.597820e+001 -8.946707e+001  5.000000e+000
    endloop
  endfacet
  facet normal  0.000000e+000  0.000000e+000  9.999999e-001
    outer loop
      vertex -4.678231e+001 -9.521899e+001  5.000000e+000
      vertex -4.597820e+001 -8.946707e+001  5.000000e+000
      vertex -4.627109e+001 -9.017418e+001  5.000000e+000
    endloop
  endfacet
  facet normal  0.000000e+000  0.000000e+000  1.000000e+000
    outer loop
      vertex -4.678231e+001 -9.521899e+001  5.000000e+000
      vertex -4.627109e+001 -9.017418e+001  5.000000e+000
      vertex -4.697820e+001 -9.046707e+001  5.000000e+000
    endloop
  endfacet
  facet normal  0.000000e+000  0.000000e+000  1.000000e+000
    outer loop
      vertex -4.678231e+001 -9.521899e+001  5.000000e+000
      vertex -4.697820e+001 -9.046707e+001  5.000000e+000
      vertex -4.768530e+001 -9.017418e+001  5.000000e+000
    endloop
  endfacet
  facet normal  0.000000e+000  0.000000e+000  1.000000e+000
    outer loop
      vertex -4.678231e+001 -9.521899e+001  5.000000e+000
      vertex -4.768530e+001 -9.017418e+001  5.000000e+000
      vertex -5.210659e+001 -8.912607e+001  5.000000e+000
    endloop
  endfacet
  facet normal  0.000000e+000  0.000000e+000  1.000000e+000
    outer loop
      vertex -5.210659e+001 -8.912607e+001  5.000000e+000
      vertex -4.768530e+001 -9.017418e+001  5.000000e+000
      vertex -4.797820e+001 -8.946707e+001  5.000000e+000
    endloop
  endfacet
  facet normal  0.000000e+000  -0.000000e+000  1.000000e+000
    outer loop
      vertex -5.210659e+001 -8.912607e+001  5.000000e+000
      vertex -4.797820e+001 -8.946707e+001  5.000000e+000
      vertex -4.768530e+001 -8.875996e+001  5.000000e+000
    endloop
  endfacet
  facet normal  0.000000e+000  -0.000000e+000  1.000000e+000
    outer loop
      vertex -5.210659e+001 -8.912607e+001  5.000000e+000
      vertex -4.768530e+001 -8.875996e+001  5.000000e+000
      vertex -4.697820e+001 -8.846707e+001  5.000000e+000
    endloop
  endfacet
  facet normal  0.000000e+000  0.000000e+000  1.000000e+000
    outer loop
      vertex -2.512715e+001 -4.727876e+001  5.000000e+000
      vertex -2.678615e+001 -5.235318e+001  5.000000e+000
      vertex -2.313768e+001 -5.014650e+001  5.000000e+000
    endloop
  endfacet
  facet normal  0.000000e+000  -0.000000e+000  1.000000e+000
    outer loop
      vertex -2.512715e+001 -4.727876e+001  5.000000e+000
      vertex -2.313768e+001 -5.014650e+001  5.000000e+000
      vertex -2.243057e+001 -4.985361e+001  5.000000e+000
    endloop
  endfacet
  facet normal  0.000000e+000  0.000000e+000  1.000000e+000
    outer loop
      vertex -2.512715e+001 -4.727876e+001  5.000000e+000
      vertex -2.243057e+001 -4.985361e+001  5.000000e+000
      vertex -2.387763e+001 -4.290106e+001  5.000000e+000
    endloop
  endfacet
  facet normal  0.000000e+000  0.000000e+000  1.000000e+000
    outer loop
      vertex -7.168885e+000 -1.016973e+001  5.000000e+000
      vertex -1.530558e+001 -7.885733e+000  5.000000e+000
      vertex -1.275576e+001 -1.499512e+001  5.000000e+000
    endloop
  endfacet
  facet normal  0.000000e+000  0.000000e+000  1.000000e+000
    outer loop
      vertex -7.168885e+000 -1.016973e+001  5.000000e+000
      vertex -1.275576e+001 -1.499512e+001  5.000000e+000
      vertex -1.204865e+001 -1.470223e+001  5.000000e+000
    endloop
  endfacet
  facet normal  -0.000000e+000  0.000000e+000  1.000000e+000
    outer loop
      vertex -7.168885e+000 -1.016973e+001  5.000000e+000
      vertex -1.204865e+001 -1.470223e+001  5.000000e+000
      vertex -1.134155e+001 -1.499512e+001  5.000000e+000
    endloop
  endfacet
  facet normal  -0.000000e+000  0.000000e+000  1.000000e+000
    outer loop
      vertex -7.168885e+000 -1.016973e+001  5.000000e+000
      vertex -1.134155e+001 -1.499512e+001  5.000000e+000
      vertex -1.104865e+001 -1.570223e+001  5.000000e+000
    endloop
  endfacet
  facet normal  -0.000000e+000  0.000000e+000  1.000000e+000
    outer loop
      vertex -7.168885e+000 -1.016973e+001  5.000000e+000
      vertex -1.104865e+001 -1.570223e+001  5.000000e+000
      vertex -1.134155e+001 -1.640934e+001  5.000000e+000
    endloop
  endfacet
  facet normal  -0.000000e+000  0.000000e+000  1.000000e+000
    outer loop
      vertex -7.168885e+000 -1.016973e+001  5.000000e+000
      vertex -1.134155e+001 -1.640934e+001  5.000000e+000
      vertex -1.272307e+001 -4.019169e+001  5.000000e+000
    endloop
  endfacet
  facet normal  0.000000e+000  0.000000e+000  1.000000e+000
    outer loop
      vertex -1.777753e+001 -4.732708e+001  5.000000e+000
      vertex -1.272307e+001 -4.019169e+001  5.000000e+000
      vertex -2.243057e+001 -4.985361e+001  5.000000e+000
    endloop
  endfacet
  facet normal  -0.000000e+000  0.000000e+000  9.999999e-001
    outer loop
      vertex -1.777753e+001 -4.732708e+001  5.000000e+000
      vertex -2.243057e+001 -4.985361e+001  5.000000e+000
      vertex -2.172346e+001 -5.014650e+001  5.000000e+000
    endloop
  endfacet
  facet normal  -0.000000e+000  0.000000e+000  1.000000e+000
    outer loop
      vertex -1.777753e+001 -4.732708e+001  5.000000e+000
      vertex -2.172346e+001 -5.014650e+001  5.000000e+000
      vertex -1.957310e+001 -5.409467e+001  5.000000e+000
    endloop
  endfacet
  facet normal  0.000000e+000  0.000000e+000  1.000000e+000
    outer loop
      vertex -3.800720e+001 -7.245853e+001  5.000000e+000
      vertex -5.210659e+001 -8.912607e+001  5.000000e+000
      vertex -4.697820e+001 -8.846707e+001  5.000000e+000
    endloop
  endfacet
  facet normal  -0.000000e+000  0.000000e+000  1.000000e+000
    outer loop
      vertex -3.800720e+001 -7.245853e+001  5.000000e+000
      vertex -4.697820e+001 -8.846707e+001  5.000000e+000
      vertex -4.627109e+001 -8.875996e+001  5.000000e+000
    endloop
  endfacet
  facet normal  -0.000000e+000  0.000000e+000  1.000000e+000
    outer loop
      vertex -3.800720e+001 -7.245853e+001  5.000000e+000
      vertex -4.627109e+001 -8.875996e+001  5.000000e+000
      vertex -4.597820e+001 -8.946707e+001  5.000000e+000
    endloop
  endfacet
  facet normal  0.000000e+000  0.000000e+000  1.000000e+000
    outer loop
      vertex -3.800720e+001 -7.245853e+001  5.000000e+000
      vertex -4.597820e+001 -8.946707e+001  5.000000e+000
      vertex -3.175814e+001 -7.745824e+001  5.000000e+000
    endloop
  endfacet
  facet normal  0.000000e+000  -0.000000e+000  1.000000e+000
    outer loop
      vertex -3.800720e+001 -7.245853e+001  5.000000e+000
      vertex -3.175814e+001 -7.745824e+001  5.000000e+000
      vertex -2.436720e+001 -6.645364e+001  5.000000e+000
    endloop
  endfacet
  facet normal  0.000000e+000  0.000000e+000  9.999999e-001
    outer loop
      vertex -3.800720e+001 -7.245853e+001  5.000000e+000
      vertex -2.436720e+001 -6.645364e+001  5.000000e+000
      vertex -3.142322e+001 -6.294915e+001  5.000000e+000
    endloop
  endfacet
  facet normal  -0.000000e+000  0.000000e+000  1.000000e+000
    outer loop
      vertex -2.678615e+001 -5.235318e+001  5.000000e+000
      vertex -3.142322e+001 -6.294915e+001  5.000000e+000
      vertex -2.436720e+001 -6.645364e+001  5.000000e+000
    endloop
  endfacet
  facet normal  0.000000e+000  -0.000000e+000  1.000000e+000
    outer loop
      vertex -2.678615e+001 -5.235318e+001  5.000000e+000
      vertex -2.436720e+001 -6.645364e+001  5.000000e+000
      vertex -1.957310e+001 -5.409467e+001  5.000000e+000
    endloop
  endfacet
  facet normal  0.000000e+000  0.000000e+000  1.000000e+000
    outer loop
      vertex -2.678615e+001 -5.235318e+001  5.000000e+000
      vertex -1.957310e+001 -5.409467e+001  5.000000e+000
      vertex -2.243057e+001 -5.185361e+001  5.000000e+000
    endloop
  endfacet
  facet normal  0.000000e+000  0.000000e+000  1.000000e+000
    outer loop
      vertex -2.678615e+001 -5.235318e+001  5.000000e+000
      vertex -2.243057e+001 -5.185361e+001  5.000000e+000
      vertex -2.313768e+001 -5.156072e+001  5.000000e+000
    endloop
  endfacet
  facet normal  0.000000e+000  0.000000e+000  9.999999e-001
    outer loop
      vertex -2.678615e+001 -5.235318e+001  5.000000e+000
      vertex -2.313768e+001 -5.156072e+001  5.000000e+000
      vertex -2.343057e+001 -5.085361e+001  5.000000e+000
    endloop
  endfacet
  facet normal  0.000000e+000  -0.000000e+000  1.000000e+000
    outer loop
      vertex -2.678615e+001 -5.235318e+001  5.000000e+000
      vertex -2.343057e+001 -5.085361e+001  5.000000e+000
      vertex -2.313768e+001 -5.014650e+001  5.000000e+000
    endloop
  endfacet
  facet normal  0.000000e+000  0.000000e+000  1.000000e+000
    outer loop
      vertex -1.957310e+001 -5.409467e+001  5.000000e+000
      vertex -2.172346e+001 -5.014650e+001  5.000000e+000
      vertex -2.143057e+001 -5.085361e+001  5.000000e+000
    endloop
  endfacet
  facet normal  0.000000e+000  0.000000e+000  1.000000e+000
    outer loop
      vertex -1.957310e+001 -5.409467e+001  5.000000e+000
      vertex -2.143057e+001 -5.085361e+001  5.000000e+000
      vertex -2.172346e+001 -5.156072e+001  5.000000e+000
    endloop
  endfacet
  facet normal  0.000000e+000  0.000000e+000  1.000000e+000
    outer loop
      vertex -1.957310e+001 -5.409467e+001  5.000000e+000
      vertex -2.172346e+001 -5.156072e+001  5.000000e+000
      vertex -2.243057e+001 -5.185361e+001  5.000000e+000
    endloop
  endfacet
  facet normal  0.000000e+000  0.000000e+000  1.000000e+000
    outer loop
      vertex -1.530558e+001 -7.885733e+000  5.000000e+000
      vertex -2.387763e+001 -4.290106e+001  5.000000e+000
      vertex -1.304865e+001 -1.570223e+001  5.000000e+000
    endloop
  endfacet
  facet normal  0.000000e+000  0.000000e+000  1.000000e+000
    outer loop
      vertex -1.304865e+001 -1.570223e+001  5.000000e+000
      vertex -2.387763e+001 -4.290106e+001  5.000000e+000
      vertex -2.243057e+001 -4.985361e+001  5.000000e+000
    endloop
  endfacet
  facet normal  0.000000e+000  0.000000e+000  1.000000e+000
    outer loop
      vertex -1.304865e+001 -1.570223e+001  5.000000e+000
      vertex -2.243057e+001 -4.985361e+001  5.000000e+000
      vertex -1.275576e+001 -1.640934e+001  5.000000e+000
    endloop
  endfacet
  facet normal  0.000000e+000  0.000000e+000  9.999999e-001
    outer loop
      vertex -1.275576e+001 -1.640934e+001  5.000000e+000
      vertex -2.243057e+001 -4.985361e+001  5.000000e+000
      vertex -1.272307e+001 -4.019169e+001  5.000000e+000
    endloop
  endfacet
  facet normal  0.000000e+000  -0.000000e+000  1.000000e+000
    outer loop
      vertex -1.275576e+001 -1.640934e+001  5.000000e+000
      vertex -1.272307e+001 -4.019169e+001  5.000000e+000
      vertex -1.204865e+001 -1.670223e+001  5.000000e+000
    endloop
  endfacet
  facet normal  0.000000e+000  0.000000e+000 -1.000000e+000
    outer loop
      vertex -1.204865e+001 -1.670223e+001  0.000000e+000
      vertex -1.134155e+001 -1.640934e+001  0.000000e+000
      vertex -1.272307e+001 -4.019169e+001  0.000000e+000
    endloop
  endfacet
  facet normal  -0.000000e+000  0.000000e+000 -1.000000e+000
    outer loop
      vertex -1.530558e+001 -7.885733e+000  0.000000e+000
      vertex -1.275576e+001 -1.499512e+001  0.000000e+000
      vertex -1.304865e+001 -1.570223e+001  0.000000e+000
    endloop
  endfacet
  facet normal  0.000000e+000  0.000000e+000 -1.000000e+000
    outer loop
      vertex -4.678231e+001 -9.521899e+001  0.000000e+000
      vertex -5.210659e+001 -8.912607e+001  0.000000e+000
      vertex -4.768530e+001 -9.017418e+001  0.000000e+000
    endloop
  endfacet
  facet normal  0.000000e+000  0.000000e+000 -1.000000e+000
    outer loop
      vertex -4.678231e+001 -9.521899e+001  0.000000e+000
      vertex -4.768530e+001 -9.017418e+001  0.000000e+000
      vertex -4.697820e+001 -9.046707e+001  0.000000e+000
    endloop
  endfacet
  facet normal  0.000000e+000  0.000000e+000 -9.999999e-001
    outer loop
      vertex -4.678231e+001 -9.521899e+001  0.000000e+000
      vertex -4.697820e+001 -9.046707e+001  0.000000e+000
      vertex -4.627109e+001 -9.017418e+001  0.000000e+000
    endloop
  endfacet
  facet normal  0.000000e+000  -0.000000e+000 -9.999999e-001
    outer loop
      vertex -4.678231e+001 -9.521899e+001  0.000000e+000
      vertex -4.627109e+001 -9.017418e+001  0.000000e+000
      vertex -4.597820e+001 -8.946707e+001  0.000000e+000
    endloop
  endfacet
  facet normal  0.000000e+000  -0.000000e+000 -1.000000e+000
    outer loop
      vertex -4.678231e+001 -9.521899e+001  0.000000e+000
      vertex -4.597820e+001 -8.946707e+001  0.000000e+000
      vertex -3.175814e+001 -7.745824e+001  0.000000e+000
    endloop
  endfacet
  facet normal  0.000000e+000  0.000000e+000 -1.000000e+000
    outer loop
      vertex -5.210659e+001 -8.912607e+001  0.000000e+000
      vertex -4.697820e+001 -8.846707e+001  0.000000e+000
      vertex -4.768530e+001 -8.875996e+001  0.000000e+000
    endloop
  endfacet
  facet normal  0.000000e+000  0.000000e+000 -1.000000e+000
    outer loop
      vertex -5.210659e+001 -8.912607e+001  0.000000e+000
      vertex -4.768530e+001 -8.875996e+001  0.000000e+000
      vertex -4.797820e+001 -8.946707e+001  0.000000e+000
    endloop
  endfacet
  facet normal  -0.000000e+000  -0.000000e+000 -1.000000e+000
    outer loop
      vertex -5.210659e+001 -8.912607e+001  0.000000e+000
      vertex -4.797820e+001 -8.946707e+001  0.000000e+000
      vertex -4.768530e+001 -9.017418e+001  0.000000e+000
    endloop
  endfacet
  facet normal  0.000000e+000  -0.000000e+000 -1.000000e+000
    outer loop
      vertex -2.512715e+001 -4.727876e+001  0.000000e+000
      vertex -2.387763e+001 -4.290106e+001  0.000000e+000
      vertex -2.243057e+001 -4.985361e+001  0.000000e+000
    endloop
  endfacet
  facet normal  -0.000000e+000  0.000000e+000 -1.000000e+000
    outer loop
      vertex -2.512715e+001 -4.727876e+001  0.000000e+000
      vertex -2.243057e+001 -4.985361e+001  0.000000e+000
      vertex -2.313768e+001 -5.014650e+001  0.000000e+000
    endloop
  endfacet
  facet normal  -0.000000e+000  0.000000e+000 -1.000000e+000
    outer loop
      vertex -2.512715e+001 -4.727876e+001  0.000000e+000
      vertex -2.313768e+001 -5.014650e+001  0.000000e+000
      vertex -2.678615e+001 -5.235318e+001  0.000000e+000
    endloop
  endfacet
  facet normal  0.000000e+000  0.000000e+000 -1.000000e+000
    outer loop
      vertex -7.168885e+000 -1.016973e+001  0.000000e+000
      vertex -1.272307e+001 -4.019169e+001  0.000000e+000
      vertex -1.134155e+001 -1.640934e+001  0.000000e+000
    endloop
  endfacet
  facet normal  0.000000e+000  0.000000e+000 -1.000000e+000
    outer loop
      vertex -7.168885e+000 -1.016973e+001  0.000000e+000
      vertex -1.134155e+001 -1.640934e+001  0.000000e+000
      vertex -1.104865e+001 -1.570223e+001  0.000000e+000
    endloop
  endfacet
  facet normal  0.000000e+000  0.000000e+000 -1.000000e+000
    outer loop
      vertex -7.168885e+000 -1.016973e+001  0.000000e+000
      vertex -1.104865e+001 -1.570223e+001  0.000000e+000
      vertex -1.134155e+001 -1.499512e+001  0.000000e+000
    endloop
  endfacet
  facet normal  0.000000e+000  0.000000e+000 -1.000000e+000
    outer loop
      vertex -7.168885e+000 -1.016973e+001  0.000000e+000
      vertex -1.134155e+001 -1.499512e+001  0.000000e+000
      vertex -1.204865e+001 -1.470223e+001  0.000000e+000
    endloop
  endfacet
  facet normal  -0.000000e+000  0.000000e+000 -1.000000e+000
    outer loop
      vertex -7.168885e+000 -1.016973e+001  0.000000e+000
      vertex -1.204865e+001 -1.470223e+001  0.000000e+000
      vertex -1.275576e+001 -1.499512e+001  0.000000e+000
    endloop
  endfacet
  facet normal  0.000000e+000  0.000000e+000 -1.000000e+000
    outer loop
      vertex -7.168885e+000 -1.016973e+001  0.000000e+000
      vertex -1.275576e+001 -1.499512e+001  0.000000e+000
      vertex -1.530558e+001 -7.885733e+000  0.000000e+000
    endloop
  endfacet
  facet normal  0.000000e+000  0.000000e+000 -1.000000e+000
    outer loop
      vertex -1.777753e+001 -4.732708e+001  0.000000e+000
      vertex -1.957310e+001 -5.409467e+001  0.000000e+000
      vertex -2.172346e+001 -5.014650e+001  0.000000e+000
    endloop
  endfacet
  facet normal  0.000000e+000  0.000000e+000 -9.999999e-001
    outer loop
      vertex -1.777753e+001 -4.732708e+001  0.000000e+000
      vertex -2.172346e+001 -5.014650e+001  0.000000e+000
      vertex -2.243057e+001 -4.985361e+001  0.000000e+000
    endloop
  endfacet
  facet normal  0.000000e+000  0.000000e+000 -1.000000e+000
    outer loop
      vertex -1.777753e+001 -4.732708e+001  0.000000e+000
      vertex -2.243057e+001 -4.985361e+001  0.000000e+000
      vertex -1.272307e+001 -4.019169e+001  0.000000e+000
    endloop
  endfacet
  facet normal  0.000000e+000  -0.000000e+000 -9.999999e-001
    outer loop
      vertex -3.800720e+001 -7.245853e+001  0.000000e+000
      vertex -3.142322e+001 -6.294915e+001  0.000000e+000
      vertex -2.436720e+001 -6.645364e+001  0.000000e+000
    endloop
  endfacet
  facet normal  0.000000e+000  0.000000e+000 -1.000000e+000
    outer loop
      vertex -3.800720e+001 -7.245853e+001  0.000000e+000
      vertex -2.436720e+001 -6.645364e+001  0.000000e+000
      vertex -3.175814e+001 -7.745824e+001  0.000000e+000
    endloop
  endfacet
  facet normal  -0.000000e+000  0.000000e+000 -1.000000e+000
    outer loop
      vertex -3.800720e+001 -7.245853e+001  0.000000e+000
      vertex -3.175814e+001 -7.745824e+001  0.000000e+000
      vertex -4.597820e+001 -8.946707e+001  0.000000e+000
    endloop
  endfacet
  facet normal  0.000000e+000  0.000000e+000 -1.000000e+000
    outer loop
      vertex -3.800720e+001 -7.245853e+001  0.000000e+000
      vertex -4.597820e+001 -8.946707e+001  0.000000e+000
      vertex -4.627109e+001 -8.875996e+001  0.000000e+000
    endloop
  endfacet
  facet normal  0.000000e+000  0.000000e+000 -9.999999e-001
    outer loop
      vertex -3.800720e+001 -7.245853e+001  0.000000e+000
      vertex -4.627109e+001 -8.875996e+001  0.000000e+000
      vertex -4.697820e+001 -8.846707e+001  0.000000e+000
    endloop
  endfacet
  facet normal  -0.000000e+000  0.000000e+000 -1.000000e+000
    outer loop
      vertex -3.800720e+001 -7.245853e+001  0.000000e+000
      vertex -4.697820e+001 -8.846707e+001  0.000000e+000
      vertex -5.210659e+001 -8.912607e+001  0.000000e+000
    endloop
  endfacet
  facet normal  0.000000e+000  0.000000e+000 -1.000000e+000
    outer loop
      vertex -2.678615e+001 -5.235318e+001  0.000000e+000
      vertex -2.313768e+001 -5.014650e+001  0.000000e+000
      vertex -2.343057e+001 -5.085361e+001  0.000000e+000
    endloop
  endfacet
  facet normal  0.000000e+000  -0.000000e+000 -9.999999e-001
    outer loop
      vertex -2.678615e+001 -5.235318e+001  0.000000e+000
      vertex -2.343057e+001 -5.085361e+001  0.000000e+000
      vertex -2.313768e+001 -5.156072e+001  0.000000e+000
    endloop
  endfacet
  facet normal  0.000000e+000  -0.000000e+000 -1.000000e+000
    outer loop
      vertex -2.678615e+001 -5.235318e+001  0.000000e+000
      vertex -2.313768e+001 -5.156072e+001  0.000000e+000
      vertex -2.243057e+001 -5.185361e+001  0.000000e+000
    endloop
  endfacet
  facet normal  0.000000e+000  -0.000000e+000 -9.999999e-001
    outer loop
      vertex -2.678615e+001 -5.235318e+001  0.000000e+000
      vertex -2.243057e+001 -5.185361e+001  0.000000e+000
      vertex -1.957310e+001 -5.409467e+001  0.000000e+000
    endloop
  endfacet
  facet normal  -0.000000e+000  0.000000e+000 -1.000000e+000
    outer loop
      vertex -2.678615e+001 -5.235318e+001  0.000000e+000
      vertex -1.957310e+001 -5.409467e+001  0.000000e+000
      vertex -2.436720e+001 -6.645364e+001  0.000000e+000
    endloop
  endfacet
  facet normal  0.000000e+000  0.000000e+000 -1.000000e+000
    outer loop
      vertex -2.678615e+001 -5.235318e+001  0.000000e+000
      vertex -2.436720e+001 -6.645364e+001  0.000000e+000
      vertex -3.142322e+001 -6.294915e+001  0.000000e+000
    endloop
  endfacet
  facet normal  0.000000e+000  0.000000e+000 -1.000000e+000
    outer loop
      vertex -1.957310e+001 -5.409467e+001  0.000000e+000
      vertex -2.243057e+001 -5.185361e+001  0.000000e+000
      vertex -2.172346e+001 -5.156072e+001  0.000000e+000
    endloop
  endfacet
  facet normal  0.000000e+000  0.000000e+000 -1.000000e+000
    outer loop
      vertex -1.957310e+001 -5.409467e+001  0.000000e+000
      vertex -2.172346e+001 -5.156072e+001  0.000000e+000
      vertex -2.143057e+001 -5.085361e+001  0.000000e+000
    endloop
  endfacet
  facet normal  0.000000e+000  0.000000e+000 -9.999999e-001
    outer loop
      vertex -1.957310e+001 -5.409467e+001  0.000000e+000
      vertex -2.143057e+001 -5.085361e+001  0.000000e+000
      vertex -2.172346e+001 -5.014650e+001  0.000000e+000
    endloop
  endfacet
  facet normal  0.000000e+000  0.000000e+000 -1.000000e+000
    outer loop
      vertex -1.204865e+001 -1.670223e+001  0.000000e+000
      vertex -1.272307e+001 -4.019169e+001  0.000000e+000
      vertex -1.275576e+001 -1.640934e+001  0.000000e+000
    endloop
  endfacet
  facet normal  0.000000e+000  -0.000000e+000 -9.999999e-001
    outer loop
      vertex -1.275576e+001 -1.640934e+001  0.000000e+000
      vertex -1.272307e+001 -4.019169e+001  0.000000e+000
      vertex -2.243057e+001 -4.985361e+001  0.000000e+000
    endloop
  endfacet
  facet normal  0.000000e+000  0.000000e+000 -1.000000e+000
    outer loop
      vertex -1.275576e+001 -1.640934e+001  0.000000e+000
      vertex -2.243057e+001 -4.985361e+001  0.000000e+000
      vertex -1.304865e+001 -1.570223e+001  0.000000e+000
    endloop
  endfacet
  facet normal  0.000000e+000  0.000000e+000 -1.000000e+000
    outer loop
      vertex -1.304865e+001 -1.570223e+001  0.000000e+000
      vertex -2.243057e+001 -4.985361e+001  0.000000e+000
      vertex -2.387763e+001 -4.290106e+001  0.000000e+000
    endloop
  endfacet
  facet normal  0.000000e+000  0.000000e+000 -1.000000e+000
    outer loop
      vertex -1.304865e+001 -1.570223e+001  0.000000e+000
      vertex -2.387763e+001 -4.290106e+001  0.000000e+000
      vertex -1.530558e+001 -7.885733e+000  0.000000e+000
    endloop
  endfacet
  facet normal  3.826838e-001 -9.238794e-001  0.000000e+000
    outer loop
      vertex -1.204865e+001 -1.470223e+001  0.000000e+000
      vertex -1.275576e+001 -1.499512e+001  5.000000e+000
      vertex -1.275576e+001 -1.499512e+001  0.000000e+000
    endloop
  endfacet
  facet normal  9.238794e-001 -3.826838e-001  0.000000e+000
    outer loop
      vertex -1.275576e+001 -1.499512e+001  0.000000e+000
      vertex -1.275576e+001 -1.499512e+001  5.000000e+000
      vertex -1.304865e+001 -1.570223e+001  5.000000e+000
    endloop
  endfacet
  facet normal  9.238794e-001 -3.826838e-001  0.000000e+000
    outer loop
      vertex -1.275576e+001 -1.499512e+001  0.000000e+000
      vertex -1.304865e+001 -1.570223e+001  5.000000e+000
      vertex -1.304865e+001 -1.570223e+001  0.000000e+000
    endloop
  endfacet
  facet normal  3.826838e-001 -9.238794e-001  0.000000e+000
    outer loop
      vertex -1.275576e+001 -1.499512e+001  5.000000e+000
      vertex -1.204865e+001 -1.470223e+001  0.000000e+000
      vertex -1.204865e+001 -1.470223e+001  5.000000e+000
    endloop
  endfacet
  facet normal -3.826838e-001 -9.238794e-001  -0.000000e+000
    outer loop
      vertex -1.204865e+001 -1.470223e+001  5.000000e+000
      vertex -1.204865e+001 -1.470223e+001  0.000000e+000
      vertex -1.134155e+001 -1.499512e+001  0.000000e+000
    endloop
  endfacet
  facet normal -3.826838e-001 -9.238794e-001  0.000000e+000
    outer loop
      vertex -1.204865e+001 -1.470223e+001  5.000000e+000
      vertex -1.134155e+001 -1.499512e+001  0.000000e+000
      vertex -1.134155e+001 -1.499512e+001  5.000000e+000
    endloop
  endfacet
  facet normal -9.238794e-001 -3.826838e-001  -0.000000e+000
    outer loop
      vertex -1.134155e+001 -1.499512e+001  5.000000e+000
      vertex -1.134155e+001 -1.499512e+001  0.000000e+000
      vertex -1.104865e+001 -1.570223e+001  0.000000e+000
    endloop
  endfacet
  facet normal -9.238794e-001 -3.826838e-001  0.000000e+000
    outer loop
      vertex -1.134155e+001 -1.499512e+001  5.000000e+000
      vertex -1.104865e+001 -1.570223e+001  0.000000e+000
      vertex -1.104865e+001 -1.570223e+001  5.000000e+000
    endloop
  endfacet
  facet normal -3.826827e-001  9.238799e-001  0.000000e+000
    outer loop
      vertex -1.204865e+001 -1.670223e+001  0.000000e+000
      vertex -1.134155e+001 -1.640934e+001  5.000000e+000
      vertex -1.134155e+001 -1.640934e+001  0.000000e+000
    endloop
  endfacet
  facet normal -9.238796e-001  3.826833e-001  0.000000e+000
    outer loop
      vertex -1.134155e+001 -1.640934e+001  0.000000e+000
      vertex -1.134155e+001 -1.640934e+001  5.000000e+000
      vertex -1.104865e+001 -1.570223e+001  5.000000e+000
    endloop
  endfacet
  facet normal -9.238796e-001  3.826833e-001  0.000000e+000
    outer loop
      vertex -1.134155e+001 -1.640934e+001  0.000000e+000
      vertex -1.104865e+001 -1.570223e+001  5.000000e+000
      vertex -1.104865e+001 -1.570223e+001  0.000000e+000
    endloop
  endfacet
  facet normal -3.826827e-001  9.238799e-001  0.000000e+000
    outer loop
      vertex -1.134155e+001 -1.640934e+001  5.000000e+000
      vertex -1.204865e+001 -1.670223e+001  0.000000e+000
      vertex -1.204865e+001 -1.670223e+001  5.000000e+000
    endloop
  endfacet
  facet normal  3.826827e-001  9.238799e-001  0.000000e+000
    outer loop
      vertex -1.204865e+001 -1.670223e+001  5.000000e+000
      vertex -1.204865e+001 -1.670223e+001  0.000000e+000
      vertex -1.275576e+001 -1.640934e+001  0.000000e+000
    endloop
  endfacet
  facet normal  3.826827e-001  9.238799e-001  -0.000000e+000
    outer loop
      vertex -1.204865e+001 -1.670223e+001  5.000000e+000
      vertex -1.275576e+001 -1.640934e+001  0.000000e+000
      vertex -1.275576e+001 -1.640934e+001  5.000000e+000
    endloop
  endfacet
  facet normal  9.238796e-001  3.826833e-001  0.000000e+000
    outer loop
      vertex -1.275576e+001 -1.640934e+001  5.000000e+000
      vertex -1.275576e+001 -1.640934e+001  0.000000e+000
      vertex -1.304865e+001 -1.570223e+001  0.000000e+000
    endloop
  endfacet
  facet normal  9.238796e-001  3.826833e-001  -0.000000e+000
    outer loop
      vertex -1.275576e+001 -1.640934e+001  5.000000e+000
      vertex -1.304865e+001 -1.570223e+001  0.000000e+000
      vertex -1.304865e+001 -1.570223e+001  5.000000e+000
    endloop
  endfacet
  facet normal -3.826822e-001  9.238800e-001  0.000000e+000
    outer loop
      vertex -2.243057e+001 -5.185361e+001  0.000000e+000
      vertex -2.172346e+001 -5.156072e+001  5.000000e+000
      vertex -2.172346e+001 -5.156072e+001  0.000000e+000
    endloop
  endfacet
  facet normal -9.238800e-001  3.826822e-001  0.000000e+000
    outer loop
      vertex -2.172346e+001 -5.156072e+001  0.000000e+000
      vertex -2.172346e+001 -5.156072e+001  5.000000e+000
      vertex -2.143057e+001 -5.085361e+001  5.000000e+000
    endloop
  endfacet
  facet normal -9.238800e-001  3.826822e-001  0.000000e+000
    outer loop
      vertex -2.172346e+001 -5.156072e+001  0.000000e+000
      vertex -2.143057e+001 -5.085361e+001  5.000000e+000
      vertex -2.143057e+001 -5.085361e+001  0.000000e+000
    endloop
  endfacet
  facet normal -3.826822e-001  9.238800e-001  0.000000e+000
    outer loop
      vertex -2.172346e+001 -5.156072e+001  5.000000e+000
      vertex -2.243057e+001 -5.185361e+001  0.000000e+000
      vertex -2.243057e+001 -5.185361e+001  5.000000e+000
    endloop
  endfacet
  facet normal  3.826822e-001  9.238800e-001  0.000000e+000
    outer loop
      vertex -2.243057e+001 -5.185361e+001  5.000000e+000
      vertex -2.243057e+001 -5.185361e+001  0.000000e+000
      vertex -2.313768e+001 -5.156072e+001  0.000000e+000
    endloop
  endfacet
  facet normal  3.826822e-001  9.238800e-001  -0.000000e+000
    outer loop
      vertex -2.243057e+001 -5.185361e+001  5.000000e+000
      vertex -2.313768e+001 -5.156072e+001  0.000000e+000
      vertex -2.313768e+001 -5.156072e+001  5.000000e+000
    endloop
  endfacet
  facet normal  9.238800e-001  3.826822e-001  0.000000e+000
    outer loop
      vertex -2.313768e+001 -5.156072e+001  5.000000e+000
      vertex -2.313768e+001 -5.156072e+001  0.000000e+000
      vertex -2.343057e+001 -5.085361e+001  0.000000e+000
    endloop
  endfacet
  facet normal  9.238800e-001  3.826822e-001  -0.000000e+000
    outer loop
      vertex -2.313768e+001 -5.156072e+001  5.000000e+000
      vertex -2.343057e+001 -5.085361e+001  0.000000e+000
      vertex -2.343057e+001 -5.085361e+001  5.000000e+000
    endloop
  endfacet
  facet normal  3.826822e-001 -9.238800e-001  0.000000e+000
    outer loop
      vertex -2.243057e+001 -4.985361e+001  0.000000e+000
      vertex -2.313768e+001 -5.014650e+001  5.000000e+000
      vertex -2.313768e+001 -5.014650e+001  0.000000e+000
    endloop
  endfacet
  facet normal  9.238800e-001 -3.826822e-001  0.000000e+000
    outer loop
      vertex -2.313768e+001 -5.014650e+001  0.000000e+000
      vertex -2.313768e+001 -5.014650e+001  5.000000e+000
      vertex -2.343057e+001 -5.085361e+001  5.000000e+000
    endloop
  endfacet
  facet normal  9.238800e-001 -3.826822e-001  0.000000e+000
    outer loop
      vertex -2.313768e+001 -5.014650e+001  0.000000e+000
      vertex -2.343057e+001 -5.085361e+001  5.000000e+000
      vertex -2.343057e+001 -5.085361e+001  0.000000e+000
    endloop
  endfacet
  facet normal  3.826822e-001 -9.238800e-001  0.000000e+000
    outer loop
      vertex -2.313768e+001 -5.014650e+001  5.000000e+000
      vertex -2.243057e+001 -4.985361e+001  0.000000e+000
      vertex -2.243057e+001 -4.985361e+001  5.000000e+000
    endloop
  endfacet
  facet normal -3.826822e-001 -9.238800e-001  -0.000000e+000
    outer loop
      vertex -2.243057e+001 -4.985361e+001  5.000000e+000
      vertex -2.243057e+001 -4.985361e+001  0.000000e+000
      vertex -2.172346e+001 -5.014650e+001  0.000000e+000
    endloop
  endfacet
  facet normal -3.826822e-001 -9.238800e-001  0.000000e+000
    outer loop
      vertex -2.243057e+001 -4.985361e+001  5.000000e+000
      vertex -2.172346e+001 -5.014650e+001  0.000000e+000
      vertex -2.172346e+001 -5.014650e+001  5.000000e+000
    endloop
  endfacet
  facet normal -9.238800e-001 -3.826822e-001  -0.000000e+000
    outer loop
      vertex -2.172346e+001 -5.014650e+001  5.000000e+000
      vertex -2.172346e+001 -5.014650e+001  0.000000e+000
      vertex -2.143057e+001 -5.085361e+001  0.000000e+000
    endloop
  endfacet
  facet normal -9.238800e-001 -3.826822e-001  0.000000e+000
    outer loop
      vertex -2.172346e+001 -5.014650e+001  5.000000e+000
      vertex -2.143057e+001 -5.085361e+001  0.000000e+000
      vertex -2.143057e+001 -5.085361e+001  5.000000e+000
    endloop
  endfacet
  facet normal  3.826822e-001 -9.238800e-001  0.000000e+000
    outer loop
      vertex -4.697820e+001 -8.846707e+001  0.000000e+000
      vertex -4.768530e+001 -8.875996e+001  5.000000e+000
      vertex -4.768530e+001 -8.875996e+001  0.000000e+000
    endloop
  endfacet
  facet normal  9.238800e-001 -3.826822e-001  0.000000e+000
    outer loop
      vertex -4.768530e+001 -8.875996e+001  0.000000e+000
      vertex -4.768530e+001 -8.875996e+001  5.000000e+000
      vertex -4.797820e+001 -8.946707e+001  5.000000e+000
    endloop
  endfacet
  facet normal  9.238800e-001 -3.826822e-001  0.000000e+000
    outer loop
      vertex -4.768530e+001 -8.875996e+001  0.000000e+000
      vertex -4.797820e+001 -8.946707e+001  5.000000e+000
      vertex -4.797820e+001 -8.946707e+001  0.000000e+000
    endloop
  endfacet
  facet normal  3.826822e-001 -9.238800e-001  0.000000e+000
    outer loop
      vertex -4.768530e+001 -8.875996e+001  5.000000e+000
      vertex -4.697820e+001 -8.846707e+001  0.000000e+000
      vertex -4.697820e+001 -8.846707e+001  5.000000e+000
    endloop
  endfacet
  facet normal -3.826822e-001 -9.238800e-001  -0.000000e+000
    outer loop
      vertex -4.697820e+001 -8.846707e+001  5.000000e+000
      vertex -4.697820e+001 -8.846707e+001  0.000000e+000
      vertex -4.627109e+001 -8.875996e+001  0.000000e+000
    endloop
  endfacet
  facet normal -3.826822e-001 -9.238800e-001  0.000000e+000
    outer loop
      vertex -4.697820e+001 -8.846707e+001  5.000000e+000
      vertex -4.627109e+001 -8.875996e+001  0.000000e+000
      vertex -4.627109e+001 -8.875996e+001  5.000000e+000
    endloop
  endfacet
  facet normal -9.238800e-001 -3.826822e-001  -0.000000e+000
    outer loop
      vertex -4.627109e+001 -8.875996e+001  5.000000e+000
      vertex -4.627109e+001 -8.875996e+001  0.000000e+000
      vertex -4.597820e+001 -8.946707e+001  0.000000e+000
    endloop
  endfacet
  facet normal -9.238800e-001 -3.826822e-001  0.000000e+000
    outer loop
      vertex -4.627109e+001 -8.875996e+001  5.000000e+000
      vertex -4.597820e+001 -8.946707e+001  0.000000e+000
      vertex -4.597820e+001 -8.946707e+001  5.000000e+000
    endloop
  endfacet
  facet normal -3.826822e-001  9.238800e-001  0.000000e+000
    outer loop
      vertex -4.697820e+001 -9.046707e+001  0.000000e+000
      vertex -4.627109e+001 -9.017418e+001  5.000000e+000
      vertex -4.627109e+001 -9.017418e+001  0.000000e+000
    endloop
  endfacet
  facet normal -9.238800e-001  3.826822e-001  0.000000e+000
    outer loop
      vertex -4.627109e+001 -9.017418e+001  0.000000e+000
      vertex -4.627109e+001 -9.017418e+001  5.000000e+000
      vertex -4.597820e+001 -8.946707e+001  5.000000e+000
    endloop
  endfacet
  facet normal -9.238800e-001  3.826822e-001  0.000000e+000
    outer loop
      vertex -4.627109e+001 -9.017418e+001  0.000000e+000
      vertex -4.597820e+001 -8.946707e+001  5.000000e+000
      vertex -4.597820e+001 -8.946707e+001  0.000000e+000
    endloop
  endfacet
  facet normal -3.826822e-001  9.238800e-001  0.000000e+000
    outer loop
      vertex -4.627109e+001 -9.017418e+001  5.000000e+000
      vertex -4.697820e+001 -9.046707e+001  0.000000e+000
      vertex -4.697820e+001 -9.046707e+001  5.000000e+000
    endloop
  endfacet
  facet normal  3.826822e-001  9.238800e-001  0.000000e+000
    outer loop
      vertex -4.697820e+001 -9.046707e+001  5.000000e+000
      vertex -4.697820e+001 -9.046707e+001  0.000000e+000
      vertex -4.768530e+001 -9.017418e+001  0.000000e+000
    endloop
  endfacet
  facet normal  3.826822e-001  9.238800e-001  -0.000000e+000
    outer loop
      vertex -4.697820e+001 -9.046707e+001  5.000000e+000
      vertex -4.768530e+001 -9.017418e+001  0.000000e+000
      vertex -4.768530e+001 -9.017418e+001  5.000000e+000
    endloop
  endfacet
  facet normal  9.238800e-001  3.826822e-001  0.000000e+000
    outer loop
      vertex -4.768530e+001 -9.017418e+001  5.000000e+000
      vertex -4.768530e+001 -9.017418e+001  0.000000e+000
      vertex -4.797820e+001 -8.946707e+001  0.000000e+000
    endloop
  endfacet
  facet normal  9.238800e-001  3.826822e-001  -0.000000e+000
    outer loop
      vertex -4.768530e+001 -9.017418e+001  5.000000e+000
      vertex -4.797820e+001 -8.946707e+001  0.000000e+000
      vertex -4.797820e+001 -8.946707e+001  5.000000e+000
    endloop
  endfacet
  facet normal  7.634746e-001 -6.458379e-001  0.000000e+000
    outer loop
      vertex -3.175814e+001 -7.745824e+001  5.000000e+000
      vertex -4.678231e+001 -9.521899e+001  5.000000e+000
      vertex -3.175814e+001 -7.745824e+001  0.000000e+000
    endloop
  endfacet
  facet normal  7.634746e-001 -6.458379e-001  0.000000e+000
    outer loop
      vertex -3.175814e+001 -7.745824e+001  0.000000e+000
      vertex -4.678231e+001 -9.521899e+001  5.000000e+000
      vertex -4.678231e+001 -9.521899e+001  0.000000e+000
    endloop
  endfacet
  facet normal -7.530069e-001 -6.580126e-001  0.000000e+000
    outer loop
      vertex -5.210659e+001 -8.912607e+001  5.000000e+000
      vertex -5.210659e+001 -8.912607e+001  0.000000e+000
      vertex -4.678231e+001 -9.521899e+001  5.000000e+000
    endloop
  endfacet
  facet normal -7.530069e-001 -6.580126e-001  -0.000000e+000
    outer loop
      vertex -4.678231e+001 -9.521899e+001  5.000000e+000
      vertex -5.210659e+001 -8.912607e+001  0.000000e+000
      vertex -4.678231e+001 -9.521899e+001  0.000000e+000
    endloop
  endfacet
  facet normal -7.634746e-001  6.458378e-001  0.000000e+000
    outer loop
      vertex -5.210659e+001 -8.912607e+001  5.000000e+000
      vertex -3.800720e+001 -7.245853e+001  5.000000e+000
      vertex -5.210659e+001 -8.912607e+001  0.000000e+000
    endloop
  endfacet
  facet normal -7.634746e-001  6.458378e-001  0.000000e+000
    outer loop
      vertex -5.210659e+001 -8.912607e+001  0.000000e+000
      vertex -3.800720e+001 -7.245853e+001  5.000000e+000
      vertex -3.800720e+001 -7.245853e+001  0.000000e+000
    endloop
  endfacet
  facet normal -9.161153e-001  4.009152e-001  0.000000e+000
    outer loop
      vertex -2.678615e+001 -5.235318e+001  0.000000e+000
      vertex -3.142322e+001 -6.294915e+001  0.000000e+000
      vertex -2.678615e+001 -5.235318e+001  5.000000e+000
    endloop
  endfacet
  facet normal -9.161153e-001  4.009152e-001  0.000000e+000
    outer loop
      vertex -2.678615e+001 -5.235318e+001  5.000000e+000
      vertex -3.142322e+001 -6.294915e+001  0.000000e+000
      vertex -3.142322e+001 -6.294915e+001  5.000000e+000
    endloop
  endfacet
  facet normal -8.221692e-001  5.692432e-001  0.000000e+000
    outer loop
      vertex -3.142322e+001 -6.294915e+001  0.000000e+000
      vertex -3.800720e+001 -7.245853e+001  0.000000e+000
      vertex -3.142322e+001 -6.294915e+001  5.000000e+000
    endloop
  endfacet
  facet normal -8.221692e-001  5.692432e-001  0.000000e+000
    outer loop
      vertex -3.142322e+001 -6.294915e+001  5.000000e+000
      vertex -3.800720e+001 -7.245853e+001  0.000000e+000
      vertex -3.800720e+001 -7.245853e+001  5.000000e+000
    endloop
  endfacet
  facet normal -9.504921e-001  3.107487e-001  0.000000e+000
    outer loop
      vertex -2.512715e+001 -4.727876e+001  5.000000e+000
      vertex -2.512715e+001 -4.727876e+001  0.000000e+000
      vertex -2.678615e+001 -5.235318e+001  5.000000e+000
    endloop
  endfacet
  facet normal -9.504921e-001  3.107487e-001  0.000000e+000
    outer loop
      vertex -2.678615e+001 -5.235318e+001  5.000000e+000
      vertex -2.512715e+001 -4.727876e+001  0.000000e+000
      vertex -2.678615e+001 -5.235318e+001  0.000000e+000
    endloop
  endfacet
  facet normal -9.615968e-001  2.744658e-001  0.000000e+000
    outer loop
      vertex -2.512715e+001 -4.727876e+001  5.000000e+000
      vertex -2.387763e+001 -4.290106e+001  5.000000e+000
      vertex -2.512715e+001 -4.727876e+001  0.000000e+000
    endloop
  endfacet
  facet normal -9.615968e-001  2.744658e-001  0.000000e+000
    outer loop
      vertex -2.512715e+001 -4.727876e+001  0.000000e+000
      vertex -2.387763e+001 -4.290106e+001  5.000000e+000
      vertex -2.387763e+001 -4.290106e+001  0.000000e+000
    endloop
  endfacet
  facet normal -9.713174e-001  2.377870e-001  0.000000e+000
    outer loop
      vertex -1.530558e+001 -7.885733e+000  5.000000e+000
      vertex -1.530558e+001 -7.885733e+000  0.000000e+000
      vertex -2.387763e+001 -4.290106e+001  5.000000e+000
    endloop
  endfacet
  facet normal -9.713174e-001  2.377870e-001  0.000000e+000
    outer loop
      vertex -2.387763e+001 -4.290106e+001  5.000000e+000
      vertex -1.530558e+001 -7.885733e+000  0.000000e+000
      vertex -2.387763e+001 -4.290106e+001  0.000000e+000
    endloop
  endfacet
  facet normal  2.702579e-001  9.627880e-001  -0.000000e+000
    outer loop
      vertex -7.168885e+000 -1.016973e+001  5.000000e+000
      vertex -7.168885e+000 -1.016973e+001  0.000000e+000
      vertex -1.530558e+001 -7.885733e+000  5.000000e+000
    endloop
  endfacet
  facet normal  2.702579e-001  9.627880e-001  0.000000e+000
    outer loop
      vertex -1.530558e+001 -7.885733e+000  5.000000e+000
      vertex -7.168885e+000 -1.016973e+001  0.000000e+000
      vertex -1.530558e+001 -7.885733e+000  0.000000e+000
    endloop
  endfacet
  facet normal  9.833139e-001 -1.819171e-001  0.000000e+000
    outer loop
      vertex -1.272307e+001 -4.019169e+001  5.000000e+000
      vertex -1.272307e+001 -4.019169e+001  0.000000e+000
      vertex -7.168885e+000 -1.016973e+001  5.000000e+000
    endloop
  endfacet
  facet normal  9.833139e-001 -1.819171e-001  0.000000e+000
    outer loop
      vertex -7.168885e+000 -1.016973e+001  5.000000e+000
      vertex -1.272307e+001 -4.019169e+001  0.000000e+000
      vertex -7.168885e+000 -1.016973e+001  0.000000e+000
    endloop
  endfacet
  facet normal  8.160120e-001 -5.780349e-001  0.000000e+000
    outer loop
      vertex -1.777753e+001 -4.732708e+001  5.000000e+000
      vertex -1.777753e+001 -4.732708e+001  0.000000e+000
      vertex -1.272307e+001 -4.019169e+001  5.000000e+000
    endloop
  endfacet
  facet normal  8.160120e-001 -5.780349e-001  0.000000e+000
    outer loop
      vertex -1.272307e+001 -4.019169e+001  5.000000e+000
      vertex -1.777753e+001 -4.732708e+001  0.000000e+000
      vertex -1.272307e+001 -4.019169e+001  0.000000e+000
    endloop
  endfacet
  facet normal  9.665589e-001 -2.564450e-001  0.000000e+000
    outer loop
      vertex -1.957310e+001 -5.409467e+001  5.000000e+000
      vertex -1.957310e+001 -5.409467e+001  0.000000e+000
      vertex -1.777753e+001 -4.732708e+001  5.000000e+000
    endloop
  endfacet
  facet normal  9.665589e-001 -2.564450e-001  0.000000e+000
    outer loop
      vertex -1.777753e+001 -4.732708e+001  5.000000e+000
      vertex -1.957310e+001 -5.409467e+001  0.000000e+000
      vertex -1.777753e+001 -4.732708e+001  0.000000e+000
    endloop
  endfacet
  facet normal  9.323141e-001 -3.616497e-001  0.000000e+000
    outer loop
      vertex -1.957310e+001 -5.409467e+001  0.000000e+000
      vertex -1.957310e+001 -5.409467e+001  5.000000e+000
      vertex -2.436720e+001 -6.645364e+001  0.000000e+000
    endloop
  endfacet
  facet normal  9.323141e-001 -3.616497e-001  0.000000e+000
    outer loop
      vertex -2.436720e+001 -6.645364e+001  0.000000e+000
      vertex -1.957310e+001 -5.409467e+001  5.000000e+000
      vertex -2.436720e+001 -6.645364e+001  5.000000e+000
    endloop
  endfacet
  facet normal  8.301467e-001 -5.575450e-001  0.000000e+000
    outer loop
      vertex -2.436720e+001 -6.645364e+001  0.000000e+000
      vertex -2.436720e+001 -6.645364e+001  5.000000e+000
      vertex -3.175814e+001 -7.745824e+001  0.000000e+000
    endloop
  endfacet
  facet normal  8.301467e-001 -5.575450e-001  0.000000e+000
    outer loop
      vertex -3.175814e+001 -7.745824e+001  0.000000e+000
      vertex -2.436720e+001 -6.645364e+001  5.000000e+000
      vertex -3.175814e+001 -7.745824e+001  5.000000e+000
    endloop
  endfacet
endsolid CATIA STL
